<?xml version="1.0" encoding="UTF-8" standalone="no"?>
<!--
  - Copyright (c) 2014, 2024, Marcus Hirt, Miroslav Wengner
  -
  - Robo4J is free software: you can redistribute it and/or modify
  - it under the terms of the GNU General Public License as published by
  - the Free Software Foundation, either version 3 of the License, or
  - (at your option) any later version.
  -
  - Robo4J is distributed in the hope that it will be useful,
  - but WITHOUT ANY WARRANTY; without even the implied warranty of
  - MERCHANTABILITY or FITNESS FOR A PARTICULAR PURPOSE. See the
  - GNU General Public License for more details.
  -
  - You should have received a copy of the GNU General Public License
  - along with Robo4J. If not, see <http://www.gnu.org/licenses/>.
  -->

<!-- Created with Inkscape (http://www.inkscape.org/) -->

<svg
   xmlns:dc="http://purl.org/dc/elements/1.1/"
   xmlns:cc="http://creativecommons.org/ns#"
   xmlns:rdf="http://www.w3.org/1999/02/22-rdf-syntax-ns#"
   xmlns:svg="http://www.w3.org/2000/svg"
   xmlns="http://www.w3.org/2000/svg"
   xmlns:sodipodi="http://sodipodi.sourceforge.net/DTD/sodipodi-0.dtd"
   xmlns:inkscape="http://www.inkscape.org/namespaces/inkscape"
   width="210mm"
   height="297.84521mm"
   viewBox="0 0 210 297.84521"
   version="1.1"
   id="svg861"
   inkscape:version="0.92.2 (5c3e80d, 2017-08-06)"
   sodipodi:docname="tshirt_back_clean.svg"
   inkscape:export-filename="C:\Users\Marcus\git\robo4j\documents\graphics\tshirt_back.png"
   inkscape:export-xdpi="300.01221"
   inkscape:export-ydpi="300.01221">
  <defs
     id="defs855" />
  <sodipodi:namedview
     id="base"
     pagecolor="#ffffff"
     bordercolor="#666666"
     borderopacity="1.0"
     inkscape:pageopacity="0"
     inkscape:pageshadow="2"
     inkscape:zoom="0.7"
     inkscape:cx="255.39561"
     inkscape:cy="734.83106"
     inkscape:document-units="mm"
     inkscape:current-layer="layer7"
     showgrid="false"
     inkscape:pagecheckerboard="true"
     inkscape:window-width="2560"
     inkscape:window-height="1537"
     inkscape:window-x="-8"
     inkscape:window-y="-8"
     inkscape:window-maximized="1"
     fit-margin-top="0"
     fit-margin-left="0"
     fit-margin-right="0"
     fit-margin-bottom="0" />
  <metadata
     id="metadata858">
    <rdf:RDF>
      <cc:Work
         rdf:about="">
        <dc:format>image/svg+xml</dc:format>
        <dc:type
           rdf:resource="http://purl.org/dc/dcmitype/StillImage" />
        <dc:title />
      </cc:Work>
    </rdf:RDF>
  </metadata>
  <g
     inkscape:groupmode="layer"
     id="layer5"
     inkscape:label="White"
     style="display:inline">
    <g
       aria-label="Robo4J"
       transform="matrix(0.884736,0,0,0.88201442,-37.08691,-426.14316)"
       style="font-style:normal;font-variant:normal;font-weight:normal;font-stretch:normal;font-size:40px;line-height:1.25;font-family:'Bauhaus 93';-inkscape-font-specification:'Bauhaus 93, ';letter-spacing:0px;word-spacing:0px;fill:#fffffe;fill-opacity:1;stroke:none"
       id="flowRoot4659-1">
      <path
         d="m 107.58008,650.88205 v 19.49218 h -7.929689 v -26.66015 h 10.175779 q 4.64844,0 7.20703,2.30469 2.85157,2.57812 2.85157,6.54296 0,4.04297 -3.53516,6.81641 l 4.57031,10.99609 h -8.32031 l -3.84766,-8.59375 v -6.85546 h 0.625 q 2.5,0 2.5,-2.14844 0,-1.89453 -2.89062,-1.89453 z"
         id="path2076"
         inkscape:connector-curvature="0" />
      <path
         d="m 132.24805,650.49142 q 4.14062,0 7.08984,2.98828 2.96875,2.96875 2.96875,7.12891 0,4.21875 -3.00781,7.1875 -2.98828,2.96875 -7.22656,2.96875 -4.23829,0 -7.2461,-2.96875 -3.00781,-2.98828 -3.00781,-7.1875 0,-4.27734 3.00781,-7.1875 3.00781,-2.92969 7.42188,-2.92969 z m -0.19532,7.20703 q -1.17187,0 -1.99218,0.85938 -0.82032,0.83984 -0.82032,2.07031 0,1.21094 0.82032,2.07031 0.83984,0.85938 1.99218,0.85938 1.17188,0 1.99219,-0.85938 0.83985,-0.85937 0.83985,-2.07031 0,-1.23047 -0.82032,-2.07031 -0.82031,-0.85938 -2.01172,-0.85938 z"
         id="path2078"
         inkscape:connector-curvature="0" />
      <path
         d="m 152.22852,643.71408 v 15.95703 q 0,3.88672 2.79296,3.88672 1.19141,0 2.01172,-0.80078 0.83985,-0.82032 0.83985,-1.97266 0,-1.19141 -0.78125,-1.99219 -0.78125,-0.82031 -1.91407,-0.82031 -0.80078,0 -1.83593,0.70313 v -8.04688 q 1.28906,-0.11719 1.95312,-0.11719 4.1211,0 7.05078,2.96875 2.94922,2.96875 2.94922,7.14844 0,4.27734 -2.98828,7.20703 -2.98828,2.92969 -7.34375,2.92969 -2.1875,0 -4.27734,-0.95703 -2.07032,-0.95703 -3.41797,-2.57813 -2.34375,-2.8125 -2.34375,-7.28515 v -16.23047 z"
         id="path2080"
         inkscape:connector-curvature="0" />
      <path
         d="m 177.7168,650.49142 q 4.14062,0 7.08984,2.98828 2.96875,2.96875 2.96875,7.12891 0,4.21875 -3.00781,7.1875 -2.98828,2.96875 -7.22656,2.96875 -4.23829,0 -7.2461,-2.96875 -3.00781,-2.98828 -3.00781,-7.1875 0,-4.27734 3.00781,-7.1875 3.00781,-2.92969 7.42188,-2.92969 z m -0.19532,7.20703 q -1.17187,0 -1.99218,0.85938 -0.82032,0.83984 -0.82032,2.07031 0,1.21094 0.82032,2.07031 0.83984,0.85938 1.99218,0.85938 1.17188,0 1.99219,-0.85938 0.83985,-0.85937 0.83985,-2.07031 0,-1.23047 -0.82032,-2.07031 -0.82031,-0.85938 -2.01172,-0.85938 z"
         id="path2082"
         inkscape:connector-curvature="0" />
      <path
         d="m 209.86523,643.71408 v 26.66015 h -7.5 v -20.35156 l -3.32031,6.60156 h 1.64063 v 5.80079 h -10.41016 l 7.89063,-18.71094 z"
         id="path2084"
         inkscape:connector-curvature="0" />
      <path
         d="m 221.7207,643.71408 v 17.96875 q 0,4.0625 -2.30468,6.71875 -2.30469,2.63672 -5.83985,2.63672 -1.03515,0 -2.42187,-0.44922 v -7.67578 q 0.58593,0.2539 1.07422,0.2539 1.5625,0 1.5625,-2.51953 v -16.93359 z"
         id="path2086"
         inkscape:connector-curvature="0" />
    </g>
    <g
       aria-label="www.robo4j.io"
       transform="matrix(0.36349294,0,0,0.35993483,-9.1914559,-69.270772)"
       style="font-style:normal;font-variant:normal;font-weight:normal;font-stretch:normal;font-size:48px;line-height:1.25;font-family:Arial;-inkscape-font-specification:'Arial, Normal';font-variant-ligatures:normal;font-variant-caps:normal;font-variant-numeric:normal;font-feature-settings:normal;text-align:start;letter-spacing:0px;word-spacing:0px;writing-mode:lr-tb;text-anchor:start;fill:#000000;fill-opacity:1;stroke:none"
       id="flowRoot6462">
      <path
         d="m 173.42187,703.10535 -7.61718,-24.89062 h 4.35937 l 3.96094,14.36719 1.47656,5.34375 q 0.0937,-0.39844 1.28906,-5.13282 l 3.96094,-14.57812 h 4.33594 l 3.72656,14.4375 1.24219,4.75781 1.42969,-4.80469 4.26562,-14.39062 h 4.10156 l -7.78125,24.89062 h -4.38281 l -3.96094,-14.90625 -0.96093,-4.24218 -5.03907,19.14843 z"
         style="font-style:normal;font-variant:normal;font-weight:normal;font-stretch:normal;font-size:48px;font-family:Arial;-inkscape-font-specification:'Arial, Normal';font-variant-ligatures:normal;font-variant-caps:normal;font-variant-numeric:normal;font-feature-settings:normal;text-align:start;writing-mode:lr-tb;text-anchor:start;fill:#ffffff;fill-opacity:1"
         id="path2089"
         inkscape:connector-curvature="0" />
      <path
         d="m 208.10937,703.10535 -7.61718,-24.89062 h 4.35937 l 3.96094,14.36719 1.47656,5.34375 q 0.0937,-0.39844 1.28906,-5.13282 l 3.96094,-14.57812 h 4.33594 l 3.72656,14.4375 1.24219,4.75781 1.42969,-4.80469 4.26562,-14.39062 h 4.10156 l -7.78125,24.89062 h -4.38281 l -3.96094,-14.90625 -0.96093,-4.24218 -5.03907,19.14843 z"
         style="font-style:normal;font-variant:normal;font-weight:normal;font-stretch:normal;font-size:48px;font-family:Arial;-inkscape-font-specification:'Arial, Normal';font-variant-ligatures:normal;font-variant-caps:normal;font-variant-numeric:normal;font-feature-settings:normal;text-align:start;writing-mode:lr-tb;text-anchor:start;fill:#ffffff;fill-opacity:1"
         id="path2091"
         inkscape:connector-curvature="0" />
      <path
         d="m 242.79687,703.10535 -7.61718,-24.89062 h 4.35937 l 3.96094,14.36719 1.47656,5.34375 q 0.0937,-0.39844 1.28906,-5.13282 l 3.96094,-14.57812 h 4.33594 l 3.72656,14.4375 1.24219,4.75781 1.42969,-4.80469 4.26562,-14.39062 h 4.10156 l -7.78125,24.89062 h -4.38281 l -3.96094,-14.90625 -0.96093,-4.24218 -5.03907,19.14843 z"
         style="font-style:normal;font-variant:normal;font-weight:normal;font-stretch:normal;font-size:48px;font-family:Arial;-inkscape-font-specification:'Arial, Normal';font-variant-ligatures:normal;font-variant-caps:normal;font-variant-numeric:normal;font-feature-settings:normal;text-align:start;writing-mode:lr-tb;text-anchor:start;fill:#ffffff;fill-opacity:1"
         id="path2093"
         inkscape:connector-curvature="0" />
      <path
         d="m 271.46094,703.10535 v -4.80468 h 4.80468 v 4.80468 z"
         style="font-style:normal;font-variant:normal;font-weight:normal;font-stretch:normal;font-size:48px;font-family:Arial;-inkscape-font-specification:'Arial, Normal';font-variant-ligatures:normal;font-variant-caps:normal;font-variant-numeric:normal;font-feature-settings:normal;text-align:start;writing-mode:lr-tb;text-anchor:start;fill:#ffffff;fill-opacity:1"
         id="path2095"
         inkscape:connector-curvature="0" />
      <path
         d="m 283.53125,703.10535 v -24.89062 h 3.79687 v 3.77344 q 1.45313,-2.64844 2.67188,-3.49219 1.24219,-0.84375 2.71875,-0.84375 2.13281,0 4.33594,1.35937 l -1.45313,3.91407 q -1.54687,-0.91407 -3.09375,-0.91407 -1.38281,0 -2.48437,0.84375 -1.10157,0.82032 -1.57032,2.29688 -0.70312,2.25 -0.70312,4.92187 v 13.03125 z"
         style="font-style:normal;font-variant:normal;font-weight:normal;font-stretch:normal;font-size:48px;font-family:Arial;-inkscape-font-specification:'Arial, Normal';font-variant-ligatures:normal;font-variant-caps:normal;font-variant-numeric:normal;font-feature-settings:normal;text-align:start;writing-mode:lr-tb;text-anchor:start;fill:#ffffff;fill-opacity:1"
         id="path2097"
         inkscape:connector-curvature="0" />
      <path
         d="m 298.03906,690.66004 q 0,-6.91406 3.84375,-10.24219 3.21094,-2.76562 7.82813,-2.76562 5.13281,0 8.39062,3.375 3.25781,3.35156 3.25781,9.28125 0,4.80469 -1.45312,7.57031 -1.42969,2.74219 -4.19531,4.26563 -2.74219,1.52343 -6,1.52343 -5.22657,0 -8.46094,-3.35156 -3.21094,-3.35156 -3.21094,-9.65625 z m 4.33594,0 q 0,4.78125 2.08594,7.17188 2.08593,2.36718 5.25,2.36718 3.14062,0 5.22656,-2.39062 2.08594,-2.39063 2.08594,-7.28906 0,-4.61719 -2.10938,-6.98438 -2.08594,-2.39062 -5.20312,-2.39062 -3.16407,0 -5.25,2.36718 -2.08594,2.36719 -2.08594,7.14844 z"
         style="font-style:normal;font-variant:normal;font-weight:normal;font-stretch:normal;font-size:48px;font-family:Arial;-inkscape-font-specification:'Arial, Normal';font-variant-ligatures:normal;font-variant-caps:normal;font-variant-numeric:normal;font-feature-settings:normal;text-align:start;writing-mode:lr-tb;text-anchor:start;fill:#ffffff;fill-opacity:1"
         id="path2099"
         inkscape:connector-curvature="0" />
      <path
         d="m 330.21875,703.10535 h -3.91406 v -34.35937 h 4.21875 v 12.25781 q 2.67187,-3.35156 6.82031,-3.35156 2.29687,0 4.33594,0.9375 2.0625,0.91406 3.375,2.60156 1.33593,1.66406 2.08593,4.03125 0.75,2.36719 0.75,5.0625 0,6.39844 -3.16406,9.89063 -3.16406,3.49218 -7.59375,3.49218 -4.40625,0 -6.91406,-3.67968 z m -0.0469,-12.63281 q 0,4.47656 1.21875,6.46875 1.99219,3.25781 5.39063,3.25781 2.76562,0 4.78125,-2.39062 2.01562,-2.41406 2.01562,-7.17188 0,-4.875 -1.94531,-7.19531 -1.92187,-2.32031 -4.66406,-2.32031 -2.76563,0 -4.78125,2.41406 -2.01563,2.39063 -2.01563,6.9375 z"
         style="font-style:normal;font-variant:normal;font-weight:normal;font-stretch:normal;font-size:48px;font-family:Arial;-inkscape-font-specification:'Arial, Normal';font-variant-ligatures:normal;font-variant-caps:normal;font-variant-numeric:normal;font-feature-settings:normal;text-align:start;writing-mode:lr-tb;text-anchor:start;fill:#ffffff;fill-opacity:1"
         id="path2101"
         inkscape:connector-curvature="0" />
      <path
         d="m 351.47656,690.66004 q 0,-6.91406 3.84375,-10.24219 3.21094,-2.76562 7.82813,-2.76562 5.13281,0 8.39062,3.375 3.25781,3.35156 3.25781,9.28125 0,4.80469 -1.45312,7.57031 -1.42969,2.74219 -4.19531,4.26563 -2.74219,1.52343 -6,1.52343 -5.22657,0 -8.46094,-3.35156 -3.21094,-3.35156 -3.21094,-9.65625 z m 4.33594,0 q 0,4.78125 2.08594,7.17188 2.08593,2.36718 5.25,2.36718 3.14062,0 5.22656,-2.39062 2.08594,-2.39063 2.08594,-7.28906 0,-4.61719 -2.10938,-6.98438 -2.08594,-2.39062 -5.20312,-2.39062 -3.16407,0 -5.25,2.36718 -2.08594,2.36719 -2.08594,7.14844 z"
         style="font-style:normal;font-variant:normal;font-weight:normal;font-stretch:normal;font-size:48px;font-family:Arial;-inkscape-font-specification:'Arial, Normal';font-variant-ligatures:normal;font-variant-caps:normal;font-variant-numeric:normal;font-feature-settings:normal;text-align:start;writing-mode:lr-tb;text-anchor:start;fill:#ffffff;fill-opacity:1"
         id="path2103"
         inkscape:connector-curvature="0" />
      <path
         d="m 392.11719,703.10535 v -8.22656 h -14.90625 v -3.86719 l 15.67968,-22.26562 h 3.44532 v 22.26562 h 4.64062 v 3.86719 h -4.64062 v 8.22656 z m 0,-12.09375 v -15.49218 l -10.75782,15.49218 z"
         style="font-style:normal;font-variant:normal;font-weight:normal;font-stretch:normal;font-size:48px;font-family:Arial;-inkscape-font-specification:'Arial, Normal';font-variant-ligatures:normal;font-variant-caps:normal;font-variant-numeric:normal;font-feature-settings:normal;text-align:start;writing-mode:lr-tb;text-anchor:start;fill:#ffffff;fill-opacity:1"
         id="path2105"
         inkscape:connector-curvature="0" />
      <path
         d="m 406.46094,673.64442 v -4.89844 h 4.21875 v 4.89844 z m -5.34375,39.11718 0.79687,-3.58593 q 1.26563,0.32812 1.99219,0.32812 1.28906,0 1.92187,-0.86719 0.63282,-0.84375 0.63282,-4.26562 v -26.15625 h 4.21875 v 26.25 q 0,4.59375 -1.19532,6.39844 -1.52343,2.34375 -5.0625,2.34375 -1.71093,0 -3.30468,-0.44532 z"
         style="font-style:normal;font-variant:normal;font-weight:normal;font-stretch:normal;font-size:48px;font-family:Arial;-inkscape-font-specification:'Arial, Normal';font-variant-ligatures:normal;font-variant-caps:normal;font-variant-numeric:normal;font-feature-settings:normal;text-align:start;writing-mode:lr-tb;text-anchor:start;fill:#ffffff;fill-opacity:1"
         id="path2107"
         inkscape:connector-curvature="0" />
      <path
         d="m 418.36719,703.10535 v -4.80468 h 4.80468 v 4.80468 z"
         style="font-style:normal;font-variant:normal;font-weight:normal;font-stretch:normal;font-size:48px;font-family:Arial;-inkscape-font-specification:'Arial, Normal';font-variant-ligatures:normal;font-variant-caps:normal;font-variant-numeric:normal;font-feature-settings:normal;text-align:start;writing-mode:lr-tb;text-anchor:start;fill:#ffffff;fill-opacity:1"
         id="path2109"
         inkscape:connector-curvature="0" />
      <path
         d="m 430.50781,673.59754 v -4.85156 h 4.21875 v 4.85156 z m 0,29.50781 v -24.89062 h 4.21875 v 24.89062 z"
         style="font-style:normal;font-variant:normal;font-weight:normal;font-stretch:normal;font-size:48px;font-family:Arial;-inkscape-font-specification:'Arial, Normal';font-variant-ligatures:normal;font-variant-caps:normal;font-variant-numeric:normal;font-feature-settings:normal;text-align:start;writing-mode:lr-tb;text-anchor:start;fill:#ffffff;fill-opacity:1"
         id="path2111"
         inkscape:connector-curvature="0" />
      <path
         d="m 439.60156,690.66004 q 0,-6.91406 3.84375,-10.24219 3.21094,-2.76562 7.82813,-2.76562 5.13281,0 8.39062,3.375 3.25781,3.35156 3.25781,9.28125 0,4.80469 -1.45312,7.57031 -1.42969,2.74219 -4.19531,4.26563 -2.74219,1.52343 -6,1.52343 -5.22657,0 -8.46094,-3.35156 -3.21094,-3.35156 -3.21094,-9.65625 z m 4.33594,0 q 0,4.78125 2.08594,7.17188 2.08593,2.36718 5.25,2.36718 3.14062,0 5.22656,-2.39062 2.08594,-2.39063 2.08594,-7.28906 0,-4.61719 -2.10938,-6.98438 -2.08594,-2.39062 -5.20312,-2.39062 -3.16407,0 -5.25,2.36718 -2.08594,2.36719 -2.08594,7.14844 z"
         style="font-style:normal;font-variant:normal;font-weight:normal;font-stretch:normal;font-size:48px;font-family:Arial;-inkscape-font-specification:'Arial, Normal';font-variant-ligatures:normal;font-variant-caps:normal;font-variant-numeric:normal;font-feature-settings:normal;text-align:start;writing-mode:lr-tb;text-anchor:start;fill:#ffffff;fill-opacity:1"
         id="path2113"
         inkscape:connector-curvature="0" />
    </g>
    <path
       transform="translate(-0.75595242,0.8452381)"
       style="fill:#ececec;fill-opacity:1;stroke-width:0.26458332"
       d="m 139.27049,41.21007 a 18.976137,18.976137 0 0 0 -18.60041,17.979781 18.976137,18.976137 0 0 0 17.95704,19.942969 18.976137,18.976137 0 0 0 19.94297,-17.956527 18.976137,18.976137 0 0 0 -17.95705,-19.943485 18.976137,18.976137 0 0 0 -1.34255,-0.02274 z m 0.0729,3.474207 a 15.373519,15.501631 3.0000001 0 1 1.08779,0.01809 15.373519,15.501631 3.0000001 0 1 3.03393,0.468188 15.373519,15.501631 3.0000001 0 1 1.46657,0.460954 15.373519,15.501631 3.0000001 0 1 1.41387,0.606164 15.373519,15.501631 3.0000001 0 1 2.09445,1.263489 15.373519,15.501631 3.0000001 0 1 0.51779,0.359151 15.373519,15.501631 3.0000001 0 1 5.2e-4,0 15.373519,15.501631 3.0000001 0 1 1.17202,1.000456 15.373519,15.501631 3.0000001 0 1 2.01952,2.329056 15.373519,15.501631 3.0000001 0 1 5.1e-4,5.17e-4 15.373519,15.501631 3.0000001 0 1 1.2883,2.225704 15.373519,15.501631 3.0000001 0 1 0.23151,0.461471 15.373519,15.501631 3.0000001 0 1 0,5.16e-4 15.373519,15.501631 3.0000001 0 1 0.55294,1.444873 15.373519,15.501631 3.0000001 0 1 0.40669,1.493966 15.373519,15.501631 3.0000001 0 1 0.34313,4.152201 15.373519,15.501631 3.0000001 0 1 -5.2e-4,0.01809 15.373519,15.501631 3.0000001 0 1 0,5.17e-4 15.373519,15.501631 3.0000001 0 1 -0.016,0.157613 15.373519,15.501631 3.0000001 0 1 -0.90951,4.381129 15.373519,15.501631 3.0000001 0 1 -4.31291,6.322095 15.373519,15.501631 3.0000001 0 1 -6.78926,3.465938 15.373519,15.501631 3.0000001 0 1 -3.04787,0.3669 15.373519,15.501631 3.0000001 0 1 -1.08779,-0.01808 15.373519,15.501631 3.0000001 0 1 -5.2e-4,0 15.373519,15.501631 3.0000001 0 1 -1.52807,-0.157615 15.373519,15.501631 3.0000001 0 1 -5.2e-4,0 15.373519,15.501631 3.0000001 0 1 -1.50481,-0.311092 15.373519,15.501631 3.0000001 0 1 -5.2e-4,0 15.373519,15.501631 3.0000001 0 1 -4.22662,-1.812292 15.373519,15.501631 3.0000001 0 1 -5.1e-4,0 15.373519,15.501631 3.0000001 0 1 -2.4381,-1.877923 15.373519,15.501631 3.0000001 0 1 -1.06763,-1.113626 15.373519,15.501631 3.0000001 0 1 -1.7787,-2.520775 15.373519,15.501631 3.0000001 0 1 -1.24592,-2.827734 15.373519,15.501631 3.0000001 0 1 -0.76843,-4.567164 15.373519,15.501631 3.0000001 0 1 0.0186,-1.097091 15.373519,15.501631 3.0000001 0 1 0.15813,-1.540991 15.373519,15.501631 3.0000001 0 1 0.7674,-2.99775 15.373519,15.501631 3.0000001 0 1 8.18606,-8.817549 15.373519,15.501631 3.0000001 0 1 1.43402,-0.558622 15.373519,15.501631 3.0000001 0 1 4.53047,-0.778764 z"
       id="path4590-8"
       inkscape:connector-curvature="0" />
    <path
       transform="translate(-0.75595242,0.8452381)"
       inkscape:connector-curvature="0"
       id="path1646"
       d="M 70.525319,69.387152 A 18.976137,18.976137 0 0 0 51.924909,87.366933 18.976137,18.976137 0 0 0 69.881949,107.3099 18.976137,18.976137 0 0 0 89.824919,89.353375 18.976137,18.976137 0 0 0 71.867869,69.40989 18.976137,18.976137 0 0 0 70.525319,69.38715 Z m 0.0729,3.474207 a 15.373519,15.501631 3.0000001 0 1 1.08779,0.01809 15.373519,15.501631 3.0000001 0 1 3.03393,0.468188 15.373519,15.501631 3.0000001 0 1 1.46657,0.460954 15.373519,15.501631 3.0000001 0 1 1.41387,0.606164 15.373519,15.501631 3.0000001 0 1 2.09445,1.263489 15.373519,15.501631 3.0000001 0 1 0.51779,0.359151 15.373519,15.501631 3.0000001 0 1 5.2e-4,0 15.373519,15.501631 3.0000001 0 1 1.17202,1.000456 15.373519,15.501631 3.0000001 0 1 2.01952,2.329056 15.373519,15.501631 3.0000001 0 1 5.1e-4,5.17e-4 15.373519,15.501631 3.0000001 0 1 1.2883,2.225704 15.373519,15.501631 3.0000001 0 1 0.23151,0.461471 15.373519,15.501631 3.0000001 0 1 0,5.16e-4 15.373519,15.501631 3.0000001 0 1 0.55294,1.444873 15.373519,15.501631 3.0000001 0 1 0.40669,1.493966 15.373519,15.501631 3.0000001 0 1 0.34313,4.152201 15.373519,15.501631 3.0000001 0 1 -5.2e-4,0.01809 15.373519,15.501631 3.0000001 0 1 0,5.17e-4 15.373519,15.501631 3.0000001 0 1 -0.016,0.157613 15.373519,15.501631 3.0000001 0 1 -0.90951,4.381129 15.373519,15.501631 3.0000001 0 1 -4.31291,6.322096 15.373519,15.501631 3.0000001 0 1 -6.78926,3.46594 15.373519,15.501631 3.0000001 0 1 -3.04787,0.3669 15.373519,15.501631 3.0000001 0 1 -1.08779,-0.0181 15.373519,15.501631 3.0000001 0 1 -5.2e-4,0 15.373519,15.501631 3.0000001 0 1 -1.52807,-0.15762 15.373519,15.501631 3.0000001 0 1 -5.2e-4,0 15.373519,15.501631 3.0000001 0 1 -1.50481,-0.31109 15.373519,15.501631 3.0000001 0 1 -5.2e-4,0 15.373519,15.501631 3.0000001 0 1 -4.22662,-1.81229 15.373519,15.501631 3.0000001 0 1 -5.1e-4,0 15.373519,15.501631 3.0000001 0 1 -2.4381,-1.877925 15.373519,15.501631 3.0000001 0 1 -1.06763,-1.113626 15.373519,15.501631 3.0000001 0 1 -1.7787,-2.520775 15.373519,15.501631 3.0000001 0 1 -1.24592,-2.827734 15.373519,15.501631 3.0000001 0 1 -0.76843,-4.567164 15.373519,15.501631 3.0000001 0 1 0.0186,-1.097091 15.373519,15.501631 3.0000001 0 1 0.15813,-1.540991 15.373519,15.501631 3.0000001 0 1 0.7674,-2.99775 15.373519,15.501631 3.0000001 0 1 8.18606,-8.817549 15.373519,15.501631 3.0000001 0 1 1.43402,-0.558622 15.373519,15.501631 3.0000001 0 1 4.53047,-0.778764 z"
       style="display:inline;fill:#ececec;fill-opacity:1;stroke-width:0.26458332" />
  </g>
  <g
     inkscape:groupmode="layer"
     id="layer6"
     inkscape:label="Dark Blue"
     style="display:inline">
    <path
       transform="translate(-0.75595242,0.8452381)"
       inkscape:connector-curvature="0"
       id="path1648"
       d="m 70.781736,66.577523 a 21.782467,21.782467 0 0 0 -20.24217,13.976408 21.782467,21.782467 0 0 0 12.52946,28.141959 21.782467,21.782467 0 0 0 28.14144,-12.529992 21.782467,21.782467 0 0 0 -12.52947,-28.141434 21.782467,21.782467 0 0 0 -7.89926,-1.446941 z m 0.0119,2.806547 a 18.976137,18.976137 0 0 1 6.88175,1.260388 18.976137,18.976137 0 0 1 10.91561,24.515817 A 18.976137,18.976137 0 0 1 64.074666,106.0759 18.976137,18.976137 0 0 1 53.159056,81.559554 18.976137,18.976137 0 0 1 70.793636,69.38407 Z m -0.0284,3.585828 a 15.501631,15.373519 20.999999 0 0 -3.07424,0.311609 15.501631,15.373519 20.999999 0 1 3.07424,-0.311609 z m -3.07424,0.311609 a 15.501631,15.373519 20.999999 0 0 -8.00054,4.372861 15.501631,15.373519 20.999999 0 1 8.00054,-4.372861 z m 3.07475,-0.311609 a 15.501631,15.373519 20.999999 0 1 3.07837,0.302307 15.501631,15.373519 20.999999 0 0 -3.07837,-0.302307 z m 7.03575,1.663981 a 15.501631,15.373519 20.999999 0 1 3.78375,2.670122 15.501631,15.373519 20.999999 0 0 -3.78375,-2.670122 z"
       style="fill:#000091;fill-opacity:1;stroke-width:0.22579624" />
    <path
       transform="translate(-0.75595242,0.8452381)"
       style="fill:#000091;fill-opacity:1;stroke-width:0.22579624"
       d="M 139.3599,38.291909 A 21.782467,21.782467 0 0 0 119.11773,52.268317 21.782467,21.782467 0 0 0 131.64719,80.410268 21.782467,21.782467 0 0 0 159.78863,67.880284 21.782467,21.782467 0 0 0 147.25916,39.73885 21.782467,21.782467 0 0 0 139.3599,38.291909 Z m 0.0119,2.806547 a 18.976137,18.976137 0 0 1 6.88175,1.260388 18.976137,18.976137 0 0 1 10.91561,24.515817 A 18.976137,18.976137 0 0 1 132.65283,77.790274 18.976137,18.976137 0 0 1 121.73722,53.27394 18.976137,18.976137 0 0 1 139.3718,41.098456 Z m -0.0284,3.585828 a 15.501631,15.373519 20.999999 0 0 -3.07424,0.311609 15.501631,15.373519 20.999999 0 1 3.07424,-0.311609 z m -3.07424,0.311609 a 15.501631,15.373519 20.999999 0 0 -8.00054,4.372861 15.501631,15.373519 20.999999 0 1 8.00054,-4.372861 z m 3.07475,-0.311609 a 15.501631,15.373519 20.999999 0 1 3.07837,0.302307 15.501631,15.373519 20.999999 0 0 -3.07837,-0.302307 z m 7.03575,1.663981 a 15.501631,15.373519 20.999999 0 1 3.78375,2.670122 15.501631,15.373519 20.999999 0 0 -3.78375,-2.670122 z"
       id="path4603-4-1"
       inkscape:connector-curvature="0" />
  </g>
  <g
     inkscape:groupmode="layer"
     id="layer7"
     inkscape:label="Purple"
     style="display:inline">
    <path
       transform="translate(-0.75595242,0.8452381)"
       id="path3745-90"
       d="m 60.559018,48.801338 c -1.889856,0.493398 -3.562393,1.034079 -5.025533,1.625225 -1.432174,0.578635 -3.018481,1.354552 -4.743895,2.321822 l 1.545125,11.046354 c -2.149483,1.633889 -4.05492,3.493534 -5.717482,5.597075 L 35.618422,67.666855 c -1.787919,3.063713 -3.162438,6.302877 -4.124296,9.717235 l 8.881113,6.713802 c -0.373735,2.663444 -0.395838,5.328727 -0.05478,8.000545 l -9.019606,6.561873 c 0.493397,1.88986 1.034076,3.56239 1.625224,5.02553 0.588021,1.4554 1.364454,3.04171 2.322338,4.7439 l 11.046354,-1.54512 c 1.620049,2.18209 3.489936,4.09218 5.60896,5.74848 l -1.72444,10.99881 c 3.063713,1.78792 6.299343,3.15466 9.704316,4.09329 l 6.713802,-8.88111 c 2.640219,0.38312 5.316778,0.40988 8.013464,0.0858 l 6.548954,8.9886 c 1.889857,-0.49339 3.562392,-1.03407 5.025532,-1.62522 1.463141,-0.59115 3.042222,-1.36445 4.744413,-2.32234 l -1.53272,-11.01537 c 2.188192,-1.64952 4.102489,-3.53032 5.735569,-5.63996 l 10.998811,1.72444 c 1.78182,-3.03424 3.15685,-6.2734 4.12481,-9.717237 l -8.89971,-6.669876 c 0.37373,-2.663444 0.39695,-5.347785 0.0729,-8.044471 l 9.01961,-6.561357 c -0.52601,-1.903698 -1.07447,-3.573214 -1.65623,-5.013129 -0.57864,-1.432176 -1.34678,-3.022018 -2.29082,-4.756817 l -11.046354,1.545125 c -1.633887,-2.149483 -3.509055,-4.048255 -5.628079,-5.70456 L 91.552476,53.118904 C 88.511984,51.3216 85.280602,49.943547 81.866244,48.981692 l -6.713802,8.881109 C 72.488998,57.48907 69.808195,57.473628 67.120891,57.820944 Z M 71.244155,66.5801 c 0.257045,0.0044 0.514244,0.01339 0.771011,0.02687 12.013483,0.629833 21.241816,10.879166 20.612179,22.89266 -0.62956,12.01369 -10.878976,21.24233 -22.89266,20.6127 -12.013482,-0.62984 -21.241816,-10.879172 -20.612179,-22.892665 0.598154,-11.416503 9.92042,-20.428071 21.350637,-20.63905 0.257077,-0.0047 0.513966,-0.0049 0.771012,-5.29e-4 z"
       style="fill:#4b00bc;fill-opacity:1;stroke-width:0.08349461"
       inkscape:connector-curvature="0" />
    <g
       style="fill:#4b00bc;fill-opacity:1"
       transform="matrix(0,-0.08349461,-0.08349461,0,257.25969,102.66961)"
       id="g3747-5-5">
      <path
         inkscape:connector-curvature="0"
         style="fill:#4b00bc;fill-opacity:1;stroke-width:0.31557018"
         d="m 524.21094,75.628906 c -5.83805,0 -12.49621,0.44093 -19.91211,1.292969 l -10.22461,40.898435 c -9.84579,2.68235 -19.15653,6.56385 -27.96094,11.64453 l -36.09961,-21.61718 c -10.60316,8.11015 -20.00806,17.48278 -28.21289,28.08593 l 21.61719,36.10157 c -5.08068,8.8044 -8.93186,18.17703 -11.51953,28.08593 l -40.89649,10.22461 c -0.94671,7.32123 -1.42187,13.94784 -1.42187,19.91211 0,5.83805 0.47516,12.49621 1.42187,19.91211 l 40.89649,10.22461 c 2.68234,9.84579 6.50196,19.15458 11.51953,27.95899 l -21.61719,36.10156 c 8.20483,10.60316 17.60973,20.00806 28.21289,28.21289 l 36.09961,-21.61719 c 8.80441,5.08068 18.11515,8.9299 27.96094,11.51758 l 10.22461,40.89844 c 7.32123,0.94671 13.94783,1.41992 19.91211,1.41992 5.93272,0 12.59088,-0.47321 19.91211,-1.41992 l 10.22461,-40.89844 c 9.94046,-2.58768 19.28153,-6.4369 28.08593,-11.51758 l 36.10157,21.61719 c 10.60315,-8.20483 19.97383,-17.60973 28.08398,-28.21289 l -21.61523,-36.10156 c 5.08068,-8.70974 8.96218,-18.05009 11.64453,-27.95899 l 40.77148,-10.22461 c 0.94671,-7.32123 1.41992,-13.94783 1.41992,-19.91211 0,-5.96427 -0.47321,-12.59088 -1.41992,-19.91211 l -40.77148,-10.22461 c -2.68235,-10.00357 -6.56385,-19.3762 -11.64453,-28.08593 l 21.61523,-36.10157 C 638.50899,125.39355 629.10603,115.98864 618.4082,107.7207 l -35.97461,21.74414 c -8.8044,-5.08068 -18.17703,-8.96218 -28.08593,-11.64453 L 544.12305,76.921875 c -7.4159,-0.852039 -14.04251,-1.292969 -19.91211,-1.292969 z m -0.35352,72.291014 c 10.20476,-0.0432 20.3286,1.81123 29.85547,5.46875 42.44731,16.29447 63.64886,63.91362 47.35547,106.36133 -16.2937,42.44808 -63.91308,63.65063 -106.36133,47.35742 -42.44833,-16.29447 -63.65014,-63.91502 -47.35547,-106.36328 12.16815,-31.70045 42.55059,-52.67829 76.50586,-52.82422 z"
         transform="matrix(0,-3.1688672,-3.1688672,0,1229.6555,3081.1532)"
         id="path3745-9-3" />
    </g>
  </g>
</svg>
