<?xml version="1.0" encoding="UTF-8" standalone="no"?>
<!--
  - Copyright (c) 2014, 2024, Marcus Hirt, Miroslav Wengner
  -
  - Robo4J is free software: you can redistribute it and/or modify
  - it under the terms of the GNU General Public License as published by
  - the Free Software Foundation, either version 3 of the License, or
  - (at your option) any later version.
  -
  - Robo4J is distributed in the hope that it will be useful,
  - but WITHOUT ANY WARRANTY; without even the implied warranty of
  - MERCHANTABILITY or FITNESS FOR A PARTICULAR PURPOSE. See the
  - GNU General Public License for more details.
  -
  - You should have received a copy of the GNU General Public License
  - along with Robo4J. If not, see <http://www.gnu.org/licenses/>.
  -->

<!-- Created with Inkscape (http://www.inkscape.org/) -->

<svg
   xmlns:dc="http://purl.org/dc/elements/1.1/"
   xmlns:cc="http://creativecommons.org/ns#"
   xmlns:rdf="http://www.w3.org/1999/02/22-rdf-syntax-ns#"
   xmlns:svg="http://www.w3.org/2000/svg"
   xmlns="http://www.w3.org/2000/svg"
   xmlns:sodipodi="http://sodipodi.sourceforge.net/DTD/sodipodi-0.dtd"
   xmlns:inkscape="http://www.inkscape.org/namespaces/inkscape"
   width="210mm"
   height="297mm"
   viewBox="0 0 210 297"
   version="1.1"
   id="svg861"
   inkscape:version="0.92.2 (5c3e80d, 2017-08-06)"
   sodipodi:docname="tshirt_front_clean.svg">
  <defs
     id="defs855" />
  <sodipodi:namedview
     id="base"
     pagecolor="#ffffff"
     bordercolor="#666666"
     borderopacity="1.0"
     inkscape:pageopacity="0"
     inkscape:pageshadow="2"
     inkscape:zoom="1.979899"
     inkscape:cx="569.94853"
     inkscape:cy="660.3758"
     inkscape:document-units="mm"
     inkscape:current-layer="layer4"
     showgrid="false"
     inkscape:pagecheckerboard="true"
     inkscape:window-width="2560"
     inkscape:window-height="1537"
     inkscape:window-x="-8"
     inkscape:window-y="-8"
     inkscape:window-maximized="1" />
  <metadata
     id="metadata858">
    <rdf:RDF>
      <cc:Work
         rdf:about="">
        <dc:format>image/svg+xml</dc:format>
        <dc:type
           rdf:resource="http://purl.org/dc/dcmitype/StillImage" />
        <dc:title />
      </cc:Work>
    </rdf:RDF>
  </metadata>
  <g
     inkscape:groupmode="layer"
     id="layer2"
     inkscape:label="White"
     style="display:inline">
    <g
       aria-label="Robo4J"
       transform="matrix(0.41151188,0,0,0.41151188,82.701953,-186.24266)"
       style="font-style:normal;font-variant:normal;font-weight:normal;font-stretch:normal;font-size:40px;line-height:1.25;font-family:'Bauhaus 93';-inkscape-font-specification:'Bauhaus 93, ';letter-spacing:0px;word-spacing:0px;fill:#fffffe;fill-opacity:1;stroke:none"
       id="flowRoot4659">
      <path
         d="m 107.58008,650.88205 v 19.49218 h -7.929689 v -26.66015 h 10.175779 q 4.64844,0 7.20703,2.30469 2.85157,2.57812 2.85157,6.54296 0,4.04297 -3.53516,6.81641 l 4.57031,10.99609 h -8.32031 l -3.84766,-8.59375 v -6.85546 h 0.625 q 2.5,0 2.5,-2.14844 0,-1.89453 -2.89062,-1.89453 z"
         id="path1430"
         inkscape:connector-curvature="0" />
      <path
         d="m 132.24805,650.49142 q 4.14062,0 7.08984,2.98828 2.96875,2.96875 2.96875,7.12891 0,4.21875 -3.00781,7.1875 -2.98828,2.96875 -7.22656,2.96875 -4.23829,0 -7.2461,-2.96875 -3.00781,-2.98828 -3.00781,-7.1875 0,-4.27734 3.00781,-7.1875 3.00781,-2.92969 7.42188,-2.92969 z m -0.19532,7.20703 q -1.17187,0 -1.99218,0.85938 -0.82032,0.83984 -0.82032,2.07031 0,1.21094 0.82032,2.07031 0.83984,0.85938 1.99218,0.85938 1.17188,0 1.99219,-0.85938 0.83985,-0.85937 0.83985,-2.07031 0,-1.23047 -0.82032,-2.07031 -0.82031,-0.85938 -2.01172,-0.85938 z"
         id="path1432"
         inkscape:connector-curvature="0" />
      <path
         d="m 152.22852,643.71408 v 15.95703 q 0,3.88672 2.79296,3.88672 1.19141,0 2.01172,-0.80078 0.83985,-0.82032 0.83985,-1.97266 0,-1.19141 -0.78125,-1.99219 -0.78125,-0.82031 -1.91407,-0.82031 -0.80078,0 -1.83593,0.70313 v -8.04688 q 1.28906,-0.11719 1.95312,-0.11719 4.1211,0 7.05078,2.96875 2.94922,2.96875 2.94922,7.14844 0,4.27734 -2.98828,7.20703 -2.98828,2.92969 -7.34375,2.92969 -2.1875,0 -4.27734,-0.95703 -2.07032,-0.95703 -3.41797,-2.57813 -2.34375,-2.8125 -2.34375,-7.28515 v -16.23047 z"
         id="path1434"
         inkscape:connector-curvature="0" />
      <path
         d="m 177.7168,650.49142 q 4.14062,0 7.08984,2.98828 2.96875,2.96875 2.96875,7.12891 0,4.21875 -3.00781,7.1875 -2.98828,2.96875 -7.22656,2.96875 -4.23829,0 -7.2461,-2.96875 -3.00781,-2.98828 -3.00781,-7.1875 0,-4.27734 3.00781,-7.1875 3.00781,-2.92969 7.42188,-2.92969 z m -0.19532,7.20703 q -1.17187,0 -1.99218,0.85938 -0.82032,0.83984 -0.82032,2.07031 0,1.21094 0.82032,2.07031 0.83984,0.85938 1.99218,0.85938 1.17188,0 1.99219,-0.85938 0.83985,-0.85937 0.83985,-2.07031 0,-1.23047 -0.82032,-2.07031 -0.82031,-0.85938 -2.01172,-0.85938 z"
         id="path1436"
         inkscape:connector-curvature="0" />
      <path
         d="m 209.86523,643.71408 v 26.66015 h -7.5 v -20.35156 l -3.32031,6.60156 h 1.64063 v 5.80079 h -10.41016 l 7.89063,-18.71094 z"
         id="path1438"
         inkscape:connector-curvature="0" />
      <path
         d="m 221.7207,643.71408 v 17.96875 q 0,4.0625 -2.30468,6.71875 -2.30469,2.63672 -5.83985,2.63672 -1.03515,0 -2.42187,-0.44922 v -7.67578 q 0.58593,0.2539 1.07422,0.2539 1.5625,0 1.5625,-2.51953 v -16.93359 z"
         id="path1440"
         inkscape:connector-curvature="0" />
    </g>
    <path
       inkscape:connector-curvature="0"
       id="path1646"
       d="m 182.4255,83.822503 a 2.0689001,2.0689001 0 0 0 -2.02793,1.960271 2.0689001,2.0689001 0 0 0 1.95779,2.17431 2.0689001,2.0689001 0 0 0 2.17431,-1.957735 2.0689001,2.0689001 0 0 0 -1.95779,-2.174367 2.0689001,2.0689001 0 0 0 -0.14638,-0.0025 z m 0.008,0.37878 a 1.6761196,1.6900872 3.0000001 0 1 0.1186,0.002 1.6761196,1.6900872 3.0000001 0 1 0.33078,0.05105 1.6761196,1.6900872 3.0000001 0 1 0.15989,0.05026 1.6761196,1.6900872 3.0000001 0 1 0.15415,0.06609 1.6761196,1.6900872 3.0000001 0 1 0.22835,0.137753 1.6761196,1.6900872 3.0000001 0 1 0.0565,0.03916 1.6761196,1.6900872 3.0000001 0 1 6e-5,0 1.6761196,1.6900872 3.0000001 0 1 0.12778,0.109076 1.6761196,1.6900872 3.0000001 0 1 0.22018,0.253929 1.6761196,1.6900872 3.0000001 0 1 6e-5,5.6e-5 1.6761196,1.6900872 3.0000001 0 1 0.14046,0.242661 1.6761196,1.6900872 3.0000001 0 1 0.0252,0.05031 1.6761196,1.6900872 3.0000001 0 1 0,5.7e-5 1.6761196,1.6900872 3.0000001 0 1 0.0603,0.157529 1.6761196,1.6900872 3.0000001 0 1 0.0443,0.162882 1.6761196,1.6900872 3.0000001 0 1 0.0374,0.452699 1.6761196,1.6900872 3.0000001 0 1 -5e-5,0.002 1.6761196,1.6900872 3.0000001 0 1 0,5.6e-5 1.6761196,1.6900872 3.0000001 0 1 -0.002,0.01718 1.6761196,1.6900872 3.0000001 0 1 -0.0992,0.477659 1.6761196,1.6900872 3.0000001 0 1 -0.47022,0.689275 1.6761196,1.6900872 3.0000001 0 1 -0.74021,0.377879 1.6761196,1.6900872 3.0000001 0 1 -0.3323,0.04 1.6761196,1.6900872 3.0000001 0 1 -0.11859,-0.002 1.6761196,1.6900872 3.0000001 0 1 -6e-5,0 1.6761196,1.6900872 3.0000001 0 1 -0.1666,-0.01718 1.6761196,1.6900872 3.0000001 0 1 -6e-5,0 1.6761196,1.6900872 3.0000001 0 1 -0.16406,-0.03392 1.6761196,1.6900872 3.0000001 0 1 -6e-5,0 1.6761196,1.6900872 3.0000001 0 1 -0.46081,-0.197588 1.6761196,1.6900872 3.0000001 0 1 -6e-5,0 1.6761196,1.6900872 3.0000001 0 1 -0.26581,-0.204743 1.6761196,1.6900872 3.0000001 0 1 -0.1164,-0.121415 1.6761196,1.6900872 3.0000001 0 1 -0.19393,-0.274831 1.6761196,1.6900872 3.0000001 0 1 -0.13584,-0.308298 1.6761196,1.6900872 3.0000001 0 1 -0.0838,-0.497941 1.6761196,1.6900872 3.0000001 0 1 0.002,-0.119612 1.6761196,1.6900872 3.0000001 0 1 0.0172,-0.168009 1.6761196,1.6900872 3.0000001 0 1 0.0837,-0.326834 1.6761196,1.6900872 3.0000001 0 1 0.89249,-0.961345 1.6761196,1.6900872 3.0000001 0 1 0.15635,-0.06091 1.6761196,1.6900872 3.0000001 0 1 0.49394,-0.08491 z"
       style="fill:#ececec;fill-opacity:1;stroke-width:0.02884657" />
    <path
       style="fill:#ececec;fill-opacity:1;stroke-width:0.02884657"
       d="m 189.92054,80.750457 a 2.0689001,2.0689001 0 0 0 -2.02793,1.960271 2.0689001,2.0689001 0 0 0 1.95779,2.17431 2.0689001,2.0689001 0 0 0 2.17431,-1.957735 2.0689001,2.0689001 0 0 0 -1.9578,-2.174367 2.0689001,2.0689001 0 0 0 -0.14637,-0.0025 z m 0.008,0.37878 a 1.6761196,1.6900872 3.0000001 0 1 0.1186,0.002 1.6761196,1.6900872 3.0000001 0 1 0.33078,0.05104 1.6761196,1.6900872 3.0000001 0 1 0.15989,0.05026 1.6761196,1.6900872 3.0000001 0 1 0.15415,0.06609 1.6761196,1.6900872 3.0000001 0 1 0.22835,0.137754 1.6761196,1.6900872 3.0000001 0 1 0.0564,0.03916 1.6761196,1.6900872 3.0000001 0 1 6e-5,0 1.6761196,1.6900872 3.0000001 0 1 0.12778,0.109076 1.6761196,1.6900872 3.0000001 0 1 0.22018,0.253929 1.6761196,1.6900872 3.0000001 0 1 6e-5,5.6e-5 1.6761196,1.6900872 3.0000001 0 1 0.14046,0.242661 1.6761196,1.6900872 3.0000001 0 1 0.0252,0.05031 1.6761196,1.6900872 3.0000001 0 1 0,5.7e-5 1.6761196,1.6900872 3.0000001 0 1 0.0603,0.157529 1.6761196,1.6900872 3.0000001 0 1 0.0443,0.162882 1.6761196,1.6900872 3.0000001 0 1 0.0374,0.452699 1.6761196,1.6900872 3.0000001 0 1 -5e-5,0.002 1.6761196,1.6900872 3.0000001 0 1 0,5.7e-5 1.6761196,1.6900872 3.0000001 0 1 -0.002,0.01718 1.6761196,1.6900872 3.0000001 0 1 -0.0992,0.477659 1.6761196,1.6900872 3.0000001 0 1 -0.47022,0.689275 1.6761196,1.6900872 3.0000001 0 1 -0.74021,0.377879 1.6761196,1.6900872 3.0000001 0 1 -0.3323,0.04 1.6761196,1.6900872 3.0000001 0 1 -0.1186,-0.002 1.6761196,1.6900872 3.0000001 0 1 -5e-5,0 1.6761196,1.6900872 3.0000001 0 1 -0.1666,-0.01718 1.6761196,1.6900872 3.0000001 0 1 -6e-5,0 1.6761196,1.6900872 3.0000001 0 1 -0.16406,-0.03392 1.6761196,1.6900872 3.0000001 0 1 -6e-5,0 1.6761196,1.6900872 3.0000001 0 1 -0.46081,-0.197588 1.6761196,1.6900872 3.0000001 0 1 -6e-5,0 1.6761196,1.6900872 3.0000001 0 1 -0.26582,-0.204743 1.6761196,1.6900872 3.0000001 0 1 -0.1164,-0.121415 1.6761196,1.6900872 3.0000001 0 1 -0.19392,-0.274831 1.6761196,1.6900872 3.0000001 0 1 -0.13584,-0.308297 1.6761196,1.6900872 3.0000001 0 1 -0.0838,-0.497942 1.6761196,1.6900872 3.0000001 0 1 0.002,-0.119612 1.6761196,1.6900872 3.0000001 0 1 0.0172,-0.168009 1.6761196,1.6900872 3.0000001 0 1 0.0837,-0.326833 1.6761196,1.6900872 3.0000001 0 1 0.89249,-0.961346 1.6761196,1.6900872 3.0000001 0 1 0.15635,-0.0609 1.6761196,1.6900872 3.0000001 0 1 0.49394,-0.08491 z"
       id="path4590-8"
       inkscape:connector-curvature="0" />
  </g>
  <g
     inkscape:groupmode="layer"
     id="layer3"
     inkscape:label="Dark Blue"
     style="display:inline">
    <path
       style="fill:#000091;fill-opacity:1;stroke-width:0.02461775"
       d="m 189.93029,80.4323 a 2.3748642,2.3748642 0 0 0 -2.20693,1.523798 2.3748642,2.3748642 0 0 0 1.36604,3.068216 2.3748642,2.3748642 0 0 0 3.06816,-1.366099 2.3748642,2.3748642 0 0 0 -1.36604,-3.06816 2.3748642,2.3748642 0 0 0 -0.86123,-0.157755 z m 10e-4,0.305988 a 2.0689001,2.0689001 0 0 1 0.75029,0.137416 2.0689001,2.0689001 0 0 1 1.19009,2.672871 2.0689001,2.0689001 0 0 1 -2.67293,1.19009 2.0689001,2.0689001 0 0 1 -1.19009,-2.672928 2.0689001,2.0689001 0 0 1 1.92264,-1.327449 z m -0.003,0.39095 a 1.6900872,1.6761196 20.999999 0 0 -0.33517,0.03397 1.6900872,1.6761196 20.999999 0 1 0.33517,-0.03397 z m -0.33517,0.03397 a 1.6900872,1.6761196 20.999999 0 0 -0.87227,0.476757 1.6900872,1.6761196 20.999999 0 1 0.87227,-0.476757 z m 0.33523,-0.03397 a 1.6900872,1.6761196 20.999999 0 1 0.33562,0.03296 1.6900872,1.6761196 20.999999 0 0 -0.33562,-0.03296 z m 0.76708,0.181418 a 1.6900872,1.6761196 20.999999 0 1 0.41253,0.291114 1.6900872,1.6761196 20.999999 0 0 -0.41253,-0.291114 z"
       id="path4603-4-1"
       inkscape:connector-curvature="0" />
    <path
       inkscape:connector-curvature="0"
       id="path1648"
       d="m 182.45346,83.516179 a 2.3748642,2.3748642 0 0 0 -2.20693,1.523798 2.3748642,2.3748642 0 0 0 1.36604,3.068217 2.3748642,2.3748642 0 0 0 3.06816,-1.3661 2.3748642,2.3748642 0 0 0 -1.36604,-3.06816 2.3748642,2.3748642 0 0 0 -0.86123,-0.157755 z m 0.001,0.305988 a 2.0689001,2.0689001 0 0 1 0.75029,0.137416 2.0689001,2.0689001 0 0 1 1.19009,2.672871 2.0689001,2.0689001 0 0 1 -2.67293,1.190092 2.0689001,2.0689001 0 0 1 -1.19009,-2.67293 2.0689001,2.0689001 0 0 1 1.92264,-1.327449 z m -0.003,0.39095 a 1.6900872,1.6761196 20.999999 0 0 -0.33517,0.03397 1.6900872,1.6761196 20.999999 0 1 0.33517,-0.03397 z m -0.33517,0.03397 a 1.6900872,1.6761196 20.999999 0 0 -0.87227,0.476757 1.6900872,1.6761196 20.999999 0 1 0.87227,-0.476757 z m 0.33523,-0.03397 a 1.6900872,1.6761196 20.999999 0 1 0.33562,0.03296 1.6900872,1.6761196 20.999999 0 0 -0.33562,-0.03296 z m 0.76708,0.181418 a 1.6900872,1.6761196 20.999999 0 1 0.41253,0.291114 1.6900872,1.6761196 20.999999 0 0 -0.41253,-0.291114 z"
       style="fill:#000091;fill-opacity:1;stroke-width:0.02461775" />
  </g>
  <g
     inkscape:groupmode="layer"
     id="layer4"
     inkscape:label="Purple"
     style="display:inline">
    <path
       transform="matrix(0,-0.00910312,-0.00910312,0,202.8669,87.359016)"
       inkscape:connector-curvature="0"
       id="path3745-90"
       d="m 635.04744,2364.9025 c -5.90934,22.6345 -12.38498,42.6662 -19.46502,60.19 -6.93022,17.1528 -16.22324,36.1518 -27.80805,56.8167 l -132.30021,-18.5056 c -19.5688,25.7439 -41.84144,48.565 -67.03517,68.4772 l 20.65953,131.7308 c -36.69355,21.4136 -75.48844,37.876 -116.3816,49.396 l -80.41001,-106.3675 c -31.8996,4.4761 -63.82122,4.7409 -95.8211,0.656 l -78.590384,108.0263 c -22.634491,-5.9094 -42.666138,-12.385 -60.189911,-19.4651 -17.431085,-7.0426 -36.429966,-16.3418 -56.816811,-27.8142 l 18.505675,-132.3002 c -26.134506,-19.403 -49.011319,-41.7983 -68.848589,-67.1775 l -131.7308,20.6533 c -21.41362,-36.6936 -37.78279,-75.4461 -49.02463,-116.2269 l 106.3675,-80.41 c -4.58852,-31.6214 -4.90899,-63.6781 -1.02741,-95.9758 l -107.65486,-78.4357 c 5.90933,-22.6344 12.38498,-42.6661 19.46502,-60.1899 7.08007,-17.5237 16.34181,-36.4361 27.81425,-56.823 l 131.92886,18.3572 c 19.75608,-26.2076 42.282069,-49.1348 67.548843,-68.6939 l -20.653319,-131.7308 c 36.340476,-21.3405 75.135366,-37.8091 116.381597,-49.4022 l 79.883919,106.5903 c 31.89959,-4.4761 64.04946,-4.7542 96.34719,-0.8726 l 78.58421,-108.0262 c 22.80025,6.2998 42.79574,12.8687 60.04135,19.8364 17.15292,6.9302 36.19417,16.13 56.97155,27.4366 l -18.50568,132.3003 c 25.74398,19.5687 48.48523,42.0273 68.3225,67.4065 l 131.73083,-20.6596 c 21.52599,36.4154 38.03069,75.1171 49.55066,116.0103 l -106.36747,80.41 c 4.47612,31.8996 4.66106,64.0071 0.50132,96.1925 z M 422.11437,2236.9286 c -0.0526,-3.0786 -0.16034,-6.159 -0.32183,-9.2343 -7.54339,-143.8833 -130.29784,-254.4094 -274.18131,-246.8684 -143.8858161,7.5401 -254.41556,130.2956 -246.87457,274.1813 7.543398,143.8834 130.297846,254.4095 274.18132,246.8684 136.73342,-7.164 244.66336,-118.8151 247.19022,-255.7128 0.0564,-3.0789 0.0586,-6.1556 0.006,-9.2342 z"
       style="fill:#4b00bc;fill-opacity:1;stroke-width:1" />
    <path
       transform="matrix(0,-0.00910312,-0.00910312,0,202.8669,87.359016)"
       style="fill:#4b00bc;fill-opacity:1;stroke-width:1"
       d="m 989.99754,1419.9983 c 0,18.5001 -1.39725,39.5989 -4.09725,63.0989 l -129.60171,32.4004 c -8.50001,31.2 -20.79996,60.7045 -36.89997,88.6045 l 68.50198,114.3949 c -25.69999,33.6 -55.40061,63.4029 -89.00058,89.4029 l -114.40109,-68.502 c -27.89997,16.1 -57.60059,28.3039 -89.00058,36.5038 l -32.40043,129.5956 c -23.20001,3 -44.19885,4.5057 -63.09883,4.5057 -18.50001,0 -39.59883,-1.5057 -63.09883,-4.5057 l -32.40044,-129.5956 c -31.2,-8.4999 -60.69832,-20.6038 -88.59832,-36.5038 l -114.40105,68.502 c -33.60001,-26 -63.40289,-55.8029 -89.4029,-89.4029 l 68.502,-114.3949 c -16.1,-27.9 -28.29767,-57.4045 -36.49768,-88.6045 L 14.500135,1483.0972 c -2.999998,-23.2 -4.499538,-44.1988 -4.499538,-63.0989 0,-18.8 1.49954,-39.8988 4.499538,-63.0988 l 129.601725,-32.4004 c 8.20001,-31.5 20.39768,-61.1006 36.49768,-89.0006 l -68.502,-114.4011 c 26.00001,-33.6 55.80289,-63.2944 89.4029,-88.9944 l 114.40105,68.4958 c 27.60001,-16.1 57.19834,-28.3999 88.59832,-36.9 l 32.40044,-129.19937 c 23.2,-2.99999 44.19882,-4.49953 63.09883,-4.49953 18.89998,0 39.89882,1.49954 63.09883,4.49953 l 32.40043,129.19937 c 31.69999,8.5001 61.40061,20.8 89.00058,36.9 l 114.40109,-68.4958 c 33.39998,25.7 63.20289,55.4967 89.4029,89.3967 l -68.9043,113.9988 c 16.10001,27.9 28.39996,57.6006 36.89997,89.0006 l 129.60171,32.4004 c 2.7,23.5 4.09725,44.4989 4.09725,63.0988 z m -229.08062,1.1203 c 0.13689,-32.3375 -5.73955,-64.4186 -17.32975,-94.608 -51.63501,-134.5099 -202.53377,-201.6948 -337.04493,-150.0632 -134.51232,51.6326 -201.70039,202.5321 -150.06937,337.0449 51.63501,134.5131 202.53821,201.6989 337.05111,150.0632 100.45452,-38.5592 166.9305,-134.8372 167.39294,-242.4369 z"
       id="path3745-9-3"
       inkscape:connector-curvature="0" />
  </g>
</svg>
