<?xml version="1.0" encoding="UTF-8"?>
<!--
  - Copyright (c) 2014, 2023, Marcus Hirt, Miroslav Wengner
  -
  - Robo4J is free software: you can redistribute it and/or modify
  - it under the terms of the GNU General Public License as published by
  - the Free Software Foundation, either version 3 of the License, or
  - (at your option) any later version.
  -
  - Robo4J is distributed in the hope that it will be useful,
  - but WITHOUT ANY WARRANTY; without even the implied warranty of
  - MERCHANTABILITY or FITNESS FOR A PARTICULAR PURPOSE. See the
  - GNU General Public License for more details.
  -
  - You should have received a copy of the GNU General Public License
  - along with Robo4J. If not, see <http://www.gnu.org/licenses/>.
  -->

<!DOCTYPE svg PUBLIC "-//W3C//DTD SVG 1.1//EN" "http://www.w3.org/Graphics/SVG/1.1/DTD/svg11.dtd">
<!-- Creator: CorelDRAW -->
<svg xmlns="http://www.w3.org/2000/svg" xml:space="preserve" width="15.4205cm" height="16.9427cm" shape-rendering="geometricPrecision" text-rendering="geometricPrecision" image-rendering="optimizeQuality" fill-rule="evenodd" clip-rule="evenodd"
viewBox="0 0 1.54205e+006 1.69427e+006"
 xmlns:xlink="http://www.w3.org/1999/xlink">
 <g id="Ebene_x0020_1">
  <metadata id="CorelCorpID_0Corel-Layer"/>
  <path id="__x0020_" fill="#E1E1E1" fill-rule="nonzero" d="M311880 1.29434e+006l0 171924 -70157 0 0 -235147 90029 0c27418,0 48672,6777 63764,20328 16819,15160 25228,34396 25228,57710 0,23773 -10425,43814 -31277,60122l40436 96987 -73613 0 -34041 -75798 0 -60466 5529 0c14746,0 22118,-6317 22118,-18950 0,-11140 -8524,-16710 -25574,-16710l-12442 0zm218247 -3446c24422,0 45331,8786 62726,26357 17511,17456 26266,38416 26266,62878 0,24807 -8870,45938 -26611,63395 -17626,17456 -38938,26185 -63936,26185 -24999,0 -46368,-8729 -64109,-26185 -17741,-17571 -26611,-38703 -26611,-63395 0,-25151 8870,-46283 26611,-63395 17741,-17226 39629,-25840 65664,-25840zm-1728 63567l0 0c-6912,0 -12787,2527 -17626,7580 -4838,4938 -7257,11025 -7257,18260 0,7121 2419,13207 7257,18261 4954,5053 10829,7580 17626,7580 6912,0 12787,-2527 17625,-7580 4954,-5054 7431,-11140 7431,-18261 0,-7235 -2420,-13322 -7258,-18260 -4838,-5053 -10771,-7580 -17798,-7580zm178502 -123344l0 140743c0,22855 8237,34282 24710,34282 7027,0 12960,-2355 17799,-7063 4954,-4824 7430,-10624 7430,-17399 0,-7006 -2304,-12864 -6912,-17572 -4608,-4823 -10253,-7235 -16934,-7235 -4723,0 -10138,2067 -16243,6202l0 -70975c7603,-689 13363,-1034 17279,-1034 24308,0 45101,8728 62381,26185 17396,17456 26093,38473 26093,63050 0,25152 -8812,46341 -26438,63567 -17626,17227 -39283,25841 -64973,25841 -12903,0 -25517,-2814 -37843,-8442 -12211,-5627 -22291,-13207 -30240,-22739 -13824,-16538 -20736,-37957 -20736,-64256l0 -143155 64627 0zm225504 59777c24423,0 45331,8786 62727,26357 17510,17456 26265,38416 26265,62878 0,24807 -8870,45938 -26611,63395 -17626,17456 -38938,26185 -63936,26185 -24998,0 -46368,-8729 -64109,-26185 -17741,-17571 -26611,-38703 -26611,-63395 0,-25151 8870,-46283 26611,-63395 17741,-17226 39629,-25840 65664,-25840zm-1728 63567l0 0c-6912,0 -12787,2527 -17626,7580 -4838,4938 -7257,11025 -7257,18260 0,7121 2419,13207 7257,18261 4954,5053 10829,7580 17626,7580 6912,0 12787,-2527 17626,-7580 4953,-5054 7430,-11140 7430,-18261 0,-7235 -2419,-13322 -7257,-18260 -4839,-5053 -10772,-7580 -17799,-7580zm286157 -123344l0 235147 -66355 0 0 -179504 -29376 58226 14515 0 0 51164 -92102 0 69811 -165033 103507 0zm104890 0l0 158487c0,23887 -6797,43641 -20391,59260 -13593,15504 -30816,23257 -51667,23257 -6106,0 -13248,-1321 -21427,-3963l0 -67701c3456,1493 6624,2239 9504,2239 9216,0 13824,-7407 13824,-22222l0 -149357 70157 0zm-1.05231e+006 421794l-27689 -89590 15847 0 14397 51713 5368 19234c226,-956 1789,-7115 4685,-18475l14398 -52472 15761 0 13545 51966 4516 17125 5197 -17294 15505 -51797 14909 0 -28285 89590 -15931 0 -14398 -53652 -3492 -15270 -18317 68922 -16016 0zm126086 0l-27688 -89590 15846 0 14398 51713 5367 19234c227,-956 1789,-7115 4686,-18475l14397 -52472 15761 0 13546 51966 4515 17125 5197 -17294 15505 -51797 14909 0 -28284 89590 -15931 0 -14398 -53652 -3493 -15270 -18316 68922 -16017 0zm126087 0l-27688 -89590 15846 0 14397 51713 5368 19234c227,-956 1789,-7115 4686,-18475l14397 -52472 15761 0 13546 51966 4515 17125 5197 -17294 15505 -51797 14909 0 -28284 89590 -15932 0 -14397 -53652 -3493 -15270 -18317 68922 -16016 0zm104192 0l0 -17293 17464 0 0 17293 -17464 0zm43874 0l0 -89590 13802 0 0 13582c3521,-6355 6758,-10545 9712,-12569 3010,-2025 6304,-3037 9882,-3037 5169,0 10422,1630 15761,4893l-5282 14087c-3749,-2193 -7497,-3290 -11246,-3290 -3351,0 -6361,1013 -9030,3037 -2669,1969 -4572,4725 -5708,8268 -1704,5398 -2556,11304 -2556,17715l0 46904 -15335 0zm52735 -44795c0,-16591 4657,-28879 13972,-36865 7781,-6636 17266,-9954 28454,-9954 12439,0 22605,4049 30500,12147 7895,8042 11842,19178 11842,33407 0,11529 -1761,20611 -5282,27248 -3465,6580 -8548,11698 -15250,15354 -6645,3655 -13915,5483 -21810,5483 -12665,0 -22916,-4022 -30754,-12063 -7781,-8043 -11672,-19628 -11672,-34757zm15761 0l0 0c0,11473 2527,20078 7582,25814 5055,5680 11416,8521 19083,8521 7611,0 13944,-2869 18999,-8605 5055,-5737 7582,-14482 7582,-26236 0,-11079 -2556,-19459 -7667,-25139 -5055,-5737 -11360,-8605 -18914,-8605 -7667,0 -14028,2840 -19083,8521 -5055,5680 -7582,14256 -7582,25729zm101210 44795l-14227 0 0 -123671 15335 0 0 44120c6474,-8042 14738,-12063 24791,-12063 5566,0 10819,1125 15761,3374 4998,2193 9087,5315 12268,9364 3237,3993 5764,8829 7582,14510 1817,5680 2726,11754 2726,18221 0,15354 -3834,27220 -11501,35600 -7667,8380 -16869,12570 -27603,12570 -10677,0 -19055,-4415 -25132,-13245l0 11220zm-171 -45470l0 0c0,10742 1477,18503 4431,23284 4827,7817 11359,11726 19594,11726 6702,0 12495,-2869 17380,-8605 4884,-5793 7326,-14398 7326,-25814 0,-11698 -2357,-20331 -7071,-25899 -4657,-5567 -10308,-8351 -16953,-8351 -6702,0 -12495,2896 -17380,8689 -4884,5736 -7327,14060 -7327,24970zm77442 675c0,-16591 4657,-28879 13971,-36865 7782,-6636 17266,-9954 28455,-9954 12438,0 22605,4049 30499,12147 7895,8042 11842,19178 11842,33407 0,11529 -1760,20611 -5282,27248 -3464,6580 -8547,11698 -15249,15354 -6645,3655 -13915,5483 -21810,5483 -12665,0 -22917,-4022 -30755,-12063 -7781,-8043 -11671,-19628 -11671,-34757zm15761 0l0 0c0,11473 2527,20078 7582,25814 5054,5680 11416,8521 19083,8521 7611,0 13944,-2869 18998,-8605 5055,-5737 7582,-14482 7582,-26236 0,-11079 -2555,-19459 -7667,-25139 -5055,-5737 -11359,-8605 -18913,-8605 -7667,0 -14029,2840 -19083,8521 -5055,5680 -7582,14256 -7582,25729zm131965 44795l0 -29610 -54184 0 0 -13919 56995 -80142 12524 0 0 80142 16868 0 0 13919 -16868 0 0 29610 -15335 0zm0 -43529l0 0 0 -55762 -39104 55762 39104 0zm52138 -62511l0 -17631 15335 0 0 17631 -15335 0zm-19424 140797l0 0 2896 -12908c3067,788 5481,1181 7242,1182 3124,-1 5452,-1041 6986,-3122 1533,-2025 2300,-7142 2300,-15353l0 -94146 15335 0 0 94483c0,11023 -1449,18700 -4345,23030 -3692,5624 -9826,8436 -18402,8436 -4146,0 -8150,-534 -12012,-1602zm62702 -34757l0 -17293 17465 0 0 17293 -17465 0zm44131 -106209l0 -17462 15334 0 0 17462 -15334 0zm0 106209l0 0 0 -89590 15334 0 0 89590 -15334 0zm33055 -44795c0,-16591 4657,-28879 13972,-36865 7781,-6636 17266,-9954 28454,-9954 12438,0 22605,4049 30500,12147 7894,8042 11842,19178 11842,33407 0,11529 -1761,20611 -5282,27248 -3465,6580 -8548,11698 -15250,15354 -6645,3655 -13915,5483 -21810,5483 -12665,0 -22917,-4022 -30755,-12063 -7781,-8043 -11671,-19628 -11671,-34757zm15761 0l0 0c0,11473 2527,20078 7582,25814 5055,5680 11416,8521 19083,8521 7611,0 13944,-2869 18998,-8605 5055,-5737 7583,-14482 7583,-26236 0,-11079 -2556,-19459 -7668,-25139 -5055,-5737 -11359,-8605 -18913,-8605 -7667,0 -14028,2840 -19083,8521 -5055,5680 -7582,14256 -7582,25729zm-136622 -1.37266e+006c-99577,1836 -180792,80340 -186004,179798 -5483,104658 74913,193945 179571,199430 104655,5483 193942,-74910 199429,-179566 5486,-104658 -74909,-193948 -179567,-199434l-3 0c-4471,-235 -8949,-310 -13426,-228zm729 34742l0 0c3627,-69 7256,-8 10878,181 10244,536 20407,2105 30340,4682 4961,1289 9856,2828 14665,4609 4810,1782 9529,3805 14139,6062 7303,3645 14307,7870 20944,12635 1750,1161 3477,2359 5178,3592 2,0 4,0 5,0 4070,3135 7982,6474 11721,10004 7486,7064 14251,14867 20195,23291 1,2 3,3 5,5 4900,7045 9209,14490 12883,22257 797,1525 1569,3063 2315,4615l0 5c2081,4720 3926,9542 5529,14449 1602,4908 2960,9894 4067,14939 2992,13620 4146,27587 3431,41522 -1,61 -3,121 -5,181 0,2 0,3 0,5 -50,526 -104,1051 -160,1576 -914,14969 -3978,29726 -9095,43812 -8900,24379 -23730,46118 -43129,63221 -19399,17102 -42745,29020 -67893,34659 -10014,2245 -20224,3474 -30478,3669 -3628,69 -7255,9 -10878,-181l-5 0c-5117,-268 -10217,-794 -15281,-1576l-5 0c-5065,-783 -10087,-1822 -15048,-3111l-6 0c-14911,-3871 -29159,-9981 -42266,-18123 -1,0 -3,0 -5,0 -8728,-5423 -16896,-11715 -24381,-18779 -3741,-3530 -7304,-7247 -10676,-11136 -6749,-7783 -12707,-16227 -17787,-25208 -5079,-8982 -9253,-18455 -12459,-28277 -4817,-14748 -7407,-30144 -7685,-45672 -66,-3658 -4,-7317 186,-10971 272,-5160 800,-10303 1582,-15410 1559,-10225 4130,-20267 7674,-29977 14357,-39328 43886,-71136 81860,-88176 4685,-2102 9471,-3966 14341,-5586 14631,-4869 29903,-7494 45304,-7788z"/>
  <path id="__x0020__0" fill="#192F97" fill-rule="nonzero" d="M1.11699e+006 206270c-89840,387 -170226,55891 -202421,139765 -43113,112310 12983,238306 125293,281419l1 0c112311,43109 238304,-12989 281415,-125300 43109,-112309 -12987,-238302 -125295,-281414 -25207,-9677 -51993,-14584 -78993,-14470zm119 28066l0 0c23522,-100 46858,4174 68818,12604 97840,37556 146711,147317 109156,245158 -37556,97842 -147318,146714 -245161,109158l-2 -2c-97843,-37556 -146714,-147318 -109158,-245160l1 -3c28049,-73068 98080,-121420 176346,-121755zm-31026 38974l0 0c-30537,6208 -58424,21450 -80006,43729 21582,-22279 49469,-37521 80006,-43729zm101105 13524l0 0c13877,6974 26631,15975 37837,26701 -11206,-10726 -23960,-19727 -37837,-26701z"/>
  <path id="__x0020__1" fill="#E1E1E1" fill-rule="nonzero" d="M408643 522223c-99576,1836 -180791,80340 -186004,179798 -5483,104657 74913,193945 179571,199429 104656,5484 193942,-74909 199429,-179565 5487,-104659 -74908,-193948 -179567,-199434 0,0 -2,-1 -3,-1 -4471,-234 -8949,-310 -13426,-227zm730 34742l0 0c3627,-69 7255,-9 10878,181 10243,536 20407,2104 30339,4682 4962,1289 9856,2827 14665,4609 4811,1782 9530,3805 14139,6062 7303,3645 14307,7870 20944,12635 1751,1161 3477,2359 5179,3591l5 0c4069,3136 7981,6475 11720,10005 7486,7064 14251,14866 20195,23290 2,2 3,4 5,6 4900,7045 9210,14489 12883,22257 797,1525 1569,3063 2315,4614 0,2 0,4 0,5 2081,4721 3927,9543 5530,14449 1602,4908 2959,9894 4067,14940 2992,13620 4146,27587 3431,41522 -2,60 -4,120 -5,181 0,2 0,3 0,5 -51,526 -104,1051 -160,1576 -915,14969 -3978,29726 -9095,43811 -8900,24380 -23731,46119 -43129,63221 -19399,17103 -42745,29021 -67893,34660 -10014,2245 -20224,3474 -30479,3669 -3627,69 -7255,8 -10878,-181 -1,0 -3,0 -5,0 -5117,-268 -10216,-794 -15280,-1577 -2,0 -4,0 -6,0 -5064,-783 -10086,-1821 -15048,-3110 -2,0 -3,0 -5,0 -14911,-3872 -29159,-9981 -42266,-18123l-5 0c-8729,-5424 -16897,-11715 -24381,-18779 -3741,-3531 -7304,-7247 -10677,-11137 -6748,-7782 -12707,-16227 -17787,-25208 -5078,-8982 -9252,-18455 -12459,-28277 -4816,-14748 -7406,-30143 -7684,-45671 -67,-3658 -5,-7317 186,-10971 272,-5160 800,-10303 1581,-15410 1560,-10225 4131,-20268 7674,-29978 14358,-39327 43887,-71135 81861,-88175 4685,-2102 9471,-3966 14340,-5586 14631,-4870 29904,-7495 45305,-7788z"/>
  <path id="__x0020__2" fill="#192F97" fill-rule="nonzero" d="M411208 494127c-89840,386 -170227,55890 -202422,139764 -43113,112310 12983,238306 125293,281419l2 0c112311,43109 238304,-12989 281414,-125300 43109,-112309 -12986,-238301 -125295,-281414 -25206,-9677 -51992,-14584 -78992,-14469zm119 28065l0 0c23522,-100 46857,4174 68817,12604 97841,37557 146711,147317 109156,245158 -37556,97842 -147318,146714 -245160,109158l-3 -2c-97842,-37556 -146714,-147318 -109158,-245160 0,0 1,-2 2,-3 28048,-73068 98080,-121420 176346,-121755zm-31027 38975l0 0c-30537,6207 -58424,21449 -80005,43728 21581,-22279 49468,-37521 80005,-43728zm101105 13523l0 0c13877,6974 26632,15975 37838,26701 -11206,-10726 -23961,-19727 -37838,-26701z"/>
  <path id="__x0020__3" fill="#521973" fill-rule="nonzero" d="M308981 316365c-18899,4934 -35624,10341 -50256,16252 -14321,5786 -30185,13546 -47439,23218l15451 110464c-21494,16339 -40549,34935 -57174,55971l-109989 -17250c-17879,30637 -31624,63029 -41242,97172l88811 67138c-3738,26635 -3959,53287 -548,80006l-90196 65619c4934,18898 10341,35623 16252,50255 5880,14554 13645,30417 23223,47439l110464 -15452c16201,21821 34899,40922 56090,57485l-17245 109987c30637,17880 62993,31547 97043,40933l67138 -88811c26403,3831 53168,4099 80135,858l65490 89886c18898,-4934 35623,-10341 50255,-16252 14631,-5912 30422,-13644 47444,-23223l-15327 -110153c21882,-16495 41025,-35303 57356,-56400l109988 17245c17818,-30343 31568,-62734 41248,-97173l-88998 -66699c3738,-26634 3970,-53477 730,-80444l90196 -65614c-5261,-19037 -10745,-35732 -16563,-50131 -5786,-14322 -13468,-30220 -22908,-47568l-110463 15451c-16339,-21495 -35091,-40482 -56281,-57046l17249 -109988c-30405,-17973 -62719,-31753 -96862,-41372l-67138 88811c-26635,-3737 -53443,-3891 -80316,-418l-65618 -90196zm106851 177788l0 0c2570,43 5142,133 7710,268 120135,6299 212418,108792 206122,228927 -6296,120137 -108790,212423 -228927,206127 -120135,-6298 -212418,-108792 -206122,-228927 5982,-114165 99205,-204281 213507,-206391 2571,-46 5139,-49 7710,-5l0 1z"/>
  <path id="__x0020__4" fill="#E1E1E1" fill-rule="nonzero" d="M728264 679105l91098 -66271 -1843 -6675c-5478,-19823 -11014,-36575 -16929,-51215 -5836,-14445 -13708,-30798 -23396,-48602l-3311 -6082 -111583 15606c-14697,-18619 -31433,-35582 -49854,-50534l17401 -110948 -5842 -3453c-30951,-18294 -64341,-32557 -99240,-42389l-6570 -1852 -67751 89621c-23626,-2854 -47477,-2980 -71207,-375l-66183 -90971 -6598 1724c-19223,5019 -36542,10623 -51480,16657 -14707,5944 -31054,13940 -48579,23766l-5960 3341 15593 111487c-18742,14773 -35733,31404 -50630,49554l-111021 -17411 -3442 5896c-18214,31208 -32422,64685 -42230,99501l-1850 6572 89617 67748c-2863,23621 -3028,47416 -492,70891l-90982 66189 1723 6599c5019,19227 10624,36546 16657,51477 6022,14907 14021,31257 23778,48596l3345 5945 111408 -15584c14555,18833 31247,35937 49736,50963l-17401 110988 5898 3442c31306,18269 64758,32378 99425,41937l6543 1804 67706 -89564c23355,2928 47143,3178 71018,744l66083 90704 6594 -1721c19224,-5018 36542,-10621 51477,-16655 14914,-6024 31264,-14025 48603,-23782l5940 -3341 -15465 -111140c19010,-14879 36087,-31662 50873,-50000l110939 17392 3449 -5869c18169,-30940 32384,-64426 42250,-99530l1857 -6597 -89806 -67307c2849,-23530 3062,-47453 634,-71276zm66159 146329l0 0c-8633,28867 -20367,56517 -34957,82374l-109037 -17097 -3618 4674c-15699,20276 -34361,38625 -55469,54536l-4696 3540 15193 109181c-14373,7848 -27919,14352 -40339,19368 -12440,5026 -26699,9756 -42471,14090l-64899 -89079 -5822 699c-26034,3135 -52155,2852 -77508,-825l-5850 -849 -66573 88061c-28521,-8394 -56130,-20040 -82248,-34695l17088 -108988 -4633 -3621c-20492,-16016 -38734,-34711 -54216,-55568l-3538 -4764 -109540 15322c-7848,-14375 -14353,-27914 -19369,-40330 -5023,-12432 -9753,-26691 -14087,-42463l89432 -65060 -751 -5871c-3263,-25562 -3084,-51587 530,-77349l820 -5822 -88009 -66529c8599,-28670 20337,-56329 34975,-82403l108955 17088 3620 -4584c15910,-20129 34544,-38369 55384,-54210l4661 -3545 -15310 -109454c14525,-7910 28067,-14416 40328,-19372 12437,-5025 26696,-9753 42468,-14089l65064 89439 5881 -762c25814,-3333 51962,-3197 77645,405l5823 816 66528 -88005c28691,8611 56251,20382 82097,35065l-17099 109028 4631 3621c20446,15982 38778,34559 54477,55218l3545 4665 109368 -15298c7831,14767 14263,28347 19151,40444 4958,12274 9660,26199 14318,42396l-89310 64970 699 5827c3128,26030 2894,52226 -703,77863l-820 5848 88191 66094z"/>
  <path id="__x0020__5" fill="#521973" fill-rule="nonzero" d="M1.11793e+006 15001c-15447,0 -33063,1166 -52685,3420l-27052 108211c-26050,7097 -50685,17367 -73980,30809l-95514 -57195c-28054,21458 -52938,46256 -74646,74311l57195 95519c-13443,23294 -23632,48093 -30479,74310l-108205 27053c-2505,19370 -3762,36904 -3762,52684 0,15446 1257,33063 3762,52684l108205 27053c7098,26050 17204,50679 30479,73974l-57195 95519c21708,28054 46592,52938 74646,74647l95514 -57196c23295,13443 47930,23627 73980,30474l27052 108210c19371,2505 36904,3757 52685,3757 15697,0 33313,-1252 52684,-3757l27052 -108210c26301,-6847 51016,-17031 74311,-30474l95519 57196c28054,-21709 52847,-46593 74305,-74647l-57190 -95519c13443,-23044 23712,-47757 30809,-73974l107875 -27053c2505,-19371 3757,-36904 3757,-52684 0,-15780 -1252,-33314 -3757,-52684l-107875 -27053c-7097,-26468 -17366,-51266 -30809,-74310l57190 -95519c-21458,-27887 -46336,-52771 -74641,-74647l-95183 57531c-23295,-13442 -48093,-23712 -74311,-30809l-27052 -108211c-19622,-2254 -37154,-3420 -52684,-3420zm-936 191269l0 0c27000,-114 53786,4793 78993,14470 112308,43112 168404,169105 125294,281414 -43110,112311 -169103,168409 -281414,125300 -112311,-43112 -168408,-169108 -125294,-281419 32195,-83874 112581,-139378 202421,-139765z"/>
  <path id="__x0020__6" fill="#E1E1E1" fill-rule="nonzero" d="M1.53321e+006 370156l-875 -6759 -108841 -27295c-6677,-23208 -15841,-45325 -27303,-65903l57682 -96346 -4148 -5395c-21883,-28439 -47604,-54165 -76454,-76460l-5422 -4191 -96046 58053c-20743,-11455 -42843,-20614 -65846,-27288l-27327 -109296 -6880 -789c-20426,-2346 -38033,-3487 -53822,-3487 -15569,0 -33680,1174 -53826,3487l-6880 789 -27327 109306c-22789,6657 -44782,15818 -65536,27290l-96349 -57693 -5391 4124c-28560,21849 -54292,47465 -76478,76133l-4176 5400 57716 96389c-11496,20827 -20567,42938 -27027,65882l-109137 27284 -875 6765c-2549,19731 -3845,37888 -3845,53966 0,15825 1296,33977 3845,53951l865 6777 109209 27303c6674,22907 15731,44890 26982,65503l-57733 96416 4176 5401c22124,28592 47842,54308 76436,76434l5399 4179 96383 -57716c20819,11500 42819,20566 65550,27010l27285 109151 6766 874c19703,2547 37862,3839 53968,3839 16102,0 34261,-1292 53964,-3839l6766 -874 27285 -109135c22903,-6436 45014,-15507 65884,-27026l96387 57716 5398 -4179c28670,-22183 54281,-47914 76130,-76479l4120 -5390 -57671 -96327c11445,-20530 20605,-42536 27289,-65563l108855 -27301 875 -6759c2549,-19711 3841,-37868 3841,-53966 0,-16095 -1292,-34253 -3841,-53966zm-19007 98620l0 0 -106904 26810 -1534 5660c-6859,25347 -16884,49420 -29793,71549l-2980 5104 56707 94715c-18466,23302 -39605,44540 -62977,63267l-94654 -56677 -5092 2939c-22541,13006 -46708,22918 -71830,29457l-5743 1495 -26827 107305c-16247,1889 -31236,2845 -44648,2845 -13412,0 -28405,-956 -44649,-2845l-26823 -107291 -5722 -1504c-24940,-6552 -49004,-16466 -71524,-29462l-5092 -2939 -94651 56677c-23347,-18702 -44600,-39953 -63296,-63300l56658 -94623 -2894 -5076c-12709,-22296 -22641,-46403 -29518,-71652l-1540 -5651 -107218 -26807c-1898,-16462 -2859,-31455 -2859,-44650 0,-13391 957,-28380 2849,-44648l107297 -26826 1499 -5735c6573,-25182 16488,-49353 29462,-71841l2939 -5090 -56675 -94652c18727,-23374 39963,-44516 63265,-62985l94682 56695 5092 -2938c22462,-12962 46553,-22996 71610,-29823l5653 -1540 26782 -107135c16633,-1730 31633,-2605 44673,-2605 13239,0 27912,855 44669,2603l26789 107148 5667 1535c25311,6852 49510,16884 71923,29817l5116 2952 94320 -57009c23527,18815 44769,40054 63276,63269l-56696 94695 2980 5104c12916,22145 22941,46323 29786,71863l1523 5679 106922 26814c1892,16255 2846,31247 2846,44653 0,13407 -954,28402 -2846,44654z"/>
 </g>
</svg>
