<?xml version="1.0" encoding="UTF-8"?>
<!--
  - Copyright (c) 2014, 2023, Marcus Hirt, Miroslav Wengner
  -
  - Robo4J is free software: you can redistribute it and/or modify
  - it under the terms of the GNU General Public License as published by
  - the Free Software Foundation, either version 3 of the License, or
  - (at your option) any later version.
  -
  - Robo4J is distributed in the hope that it will be useful,
  - but WITHOUT ANY WARRANTY; without even the implied warranty of
  - MERCHANTABILITY or FITNESS FOR A PARTICULAR PURPOSE. See the
  - GNU General Public License for more details.
  -
  - You should have received a copy of the GNU General Public License
  - along with Robo4J. If not, see <http://www.gnu.org/licenses/>.
  -->

<!DOCTYPE svg PUBLIC "-//W3C//DTD SVG 1.1//EN" "http://www.w3.org/Graphics/SVG/1.1/DTD/svg11.dtd">
<!-- Creator: CorelDRAW -->
<svg xmlns="http://www.w3.org/2000/svg" xml:space="preserve" width="1.8626cm" height="10.1cm" shape-rendering="geometricPrecision" text-rendering="geometricPrecision" image-rendering="optimizeQuality" fill-rule="evenodd" clip-rule="evenodd"
viewBox="0 0 186260 1.01e+006"
 xmlns:xlink="http://www.w3.org/1999/xlink">
 <g id="Ebene_x0020_1">
  <metadata id="CorelCorpID_0Corel-Layer"/>
  <path id="__x0020_" fill="#E1E1E1" fill-rule="nonzero" d="M9466 5000l-243 49 -197 133 -132 197 -51 244 0 44859 51 242 132 198 197 133 243 49 112056 0 168 168 0 7911 -171 3896 -513 3392 -855 2864 -553 1232 -638 1104 -723 973 -828 859 -869 693 -976 581 -1060 454 -1146 322 -1233 195 -1319 64 -2904 -226 -1299 -282 -1206 -393 -1132 -519 -987 -603 -914 -730 -818 -841 -722 -953 -625 -1065 -530 -1180 -434 -1293 -581 -2929 -193 -3412 1 -3051 -50 -242 -132 -198 -197 -133 -243 -49 -39041 0 -253 55 -49334 22096 -268 229 -101 339 0 47044 74 293 203 224 285 101 300 -44 62732 -26085 218 55 1889 2302 2093 2322 2152 2163 2209 2002 2267 1843 2326 1683 2382 1524 2441 1364 2498 1203 2558 1044 2614 884 2672 723 2731 563 2788 403 2845 242 2905 82 2846 -62 2777 -194 2716 -321 2654 -450 2589 -580 2530 -709 2466 -839 2405 -968 2341 -1097 2278 -1227 2216 -1355 2154 -1486 2090 -1614 2028 -1745 1965 -1873 1899 -2001 1619 -1901 1517 -1998 1411 -2092 1308 -2186 1202 -2283 1098 -2377 994 -2471 888 -2565 784 -2660 679 -2746 1055 -5850 620 -6107 211 -6566 0 -58421 -49 -244 -133 -197 -197 -133 -242 -49 -153278 0zm55894 171551l0 0 1737 74 1669 222 1595 370 1525 517 1454 664 1385 814 1313 959 1244 1109 1162 1215 1005 1276 850 1340 695 1401 541 1467 385 1527 232 1593 76 1652 -78 1687 -232 1617 -386 1547 -542 1482 -695 1413 -851 1347 -1005 1282 -1161 1215 -1245 1108 -1315 960 -1385 812 -1455 663 -1525 517 -1596 369 -1666 221 -1738 73 -1714 -76 -1649 -227 -1584 -378 -1522 -530 -1458 -681 -1395 -831 -1333 -984 -1269 -1134 -1161 -1215 -1005 -1276 -849 -1340 -695 -1403 -541 -1465 -386 -1529 -231 -1592 -76 -1657 76 -1631 234 -1575 386 -1518 541 -1461 696 -1406 851 -1349 1006 -1294 1161 -1239 1269 -1106 1332 -960 1396 -813 1459 -663 1522 -517 1585 -368 1648 -221 1713 -74zm136 -43162l0 0 -3015 66 -2959 203 -2907 340 -2852 475 -2796 612 -2742 749 -2686 884 -2634 1022 -2578 1156 -2523 1294 -2469 1431 -2415 1566 -2358 1703 -2304 1839 -2250 1975 -2192 2112 -2087 2209 -1950 2261 -1815 2320 -1682 2373 -1548 2431 -1413 2487 -1279 2542 -1144 2600 -1011 2653 -875 2711 -741 2767 -606 2822 -473 2878 -338 2934 -203 2990 -68 3044 66 3043 201 2989 334 2928 470 2876 603 2818 738 2761 873 2705 1008 2649 1141 2593 1276 2535 1411 2478 1546 2425 1680 2366 1814 2310 1950 2252 2086 2197 2175 2110 2235 1978 2292 1840 2348 1705 2406 1568 2462 1432 2519 1297 2576 1159 2632 1024 2690 889 2745 750 2805 616 2860 478 2915 342 2974 206 3029 70 2989 -67 2930 -200 2880 -335 2826 -469 2773 -605 2718 -738 2666 -873 2611 -1007 2557 -1143 2504 -1276 2449 -1412 2396 -1546 2343 -1682 2286 -1814 2235 -1950 2181 -2088 2095 -2160 1964 -2219 1827 -2271 1693 -2326 1558 -2379 1422 -2434 1287 -2490 1153 -2542 1016 -2598 883 -2651 746 -2705 610 -2759 476 -2815 339 -2866 204 -2924 70 -3013 -66 -3129 -197 -3104 -331 -3040 -463 -2976 -596 -2914 -728 -2850 -861 -2785 -994 -2723 -1127 -2659 -1260 -2597 -1391 -2533 -1526 -2467 -1657 -2406 -1791 -2341 -1925 -2278 -2056 -2215 -2138 -2111 -2200 -1977 -2262 -1840 -2325 -1704 -2387 -1570 -2448 -1432 -2511 -1296 -2573 -1161 -2637 -1023 -2697 -888 -2761 -751 -2820 -616 -2884 -478 -2946 -342 -3008 -206 -3068 -69zm3837 133818l0 0 -6326 211 -6076 643 -5680 1052 -5417 1479 -2616 906 -2527 1008 -2452 1113 -2377 1221 -2302 1326 -2228 1433 -2152 1539 -2075 1644 -2290 2016 -2170 2150 -2051 2280 -1931 2413 -1810 2544 -1690 2674 -1570 2805 -1448 2935 -1303 3041 -1127 3054 -956 3075 -782 3091 -608 3110 -435 3127 -262 3145 -89 3168 66 3129 197 3063 331 3003 463 2940 596 2877 727 2818 862 2755 994 2695 1126 2631 1259 2569 1393 2509 1525 2447 1658 2386 1790 2322 1924 2260 2056 2199 2153 2099 2213 1964 2274 1828 2336 1693 2398 1560 2457 1423 2520 1287 2580 1153 2643 1019 2703 881 2765 746 2826 611 2887 475 2947 341 3010 204 3067 68 3003 -65 2945 -199 2892 -332 2837 -467 2781 -599 2729 -734 2673 -868 2617 -1001 2565 -1135 2509 -1268 2455 -1403 2399 -1536 2345 -1669 2291 -1804 2236 -1938 2180 -2071 2084 -2148 1949 -2203 1816 -2257 1681 -2312 1548 -2366 1413 -2421 1280 -2475 1144 -2528 1011 -2584 875 -2636 741 -2692 608 -2744 471 -2801 338 -2853 203 -2908 69 -2953 -168 -4767 -473 -6094 -62 -228 -137 -182 -193 -121 -232 -43 -45137 0 -316 85 -228 233 -79 303 92 326 1285 2101 1257 2714 769 2594 248 2352 -72 1618 -222 1537 -369 1472 -526 1429 -655 1325 -812 1281 -959 1219 -1108 1157 -1188 1055 -1258 915 -1349 781 -1377 623 -1470 492 -1559 354 -1589 207 -1682 71 -1651 -79 -1547 -225 -1510 -378 -1448 -529 -1409 -692 -1310 -820 -1269 -983 -1211 -1134 -1094 -1233 -925 -1265 -790 -1348 -648 -1415 -510 -1503 -355 -1528 -215 -1615 -71 -1685 87 -1950 269 -1847 432 -1672 612 -1571 786 -1443 961 -1316 1156 -1210 1289 -1049 1486 -941 1661 -818 1838 -690 2032 -570 2207 -444 2365 -313 2539 -186 2705 -62 91834 0 242 -49 197 -132 133 -199 50 -242 0 -41240 -50 -241 -133 -198 -197 -133 -242 -49 -93411 0zm-3973 172681l0 0 1737 75 1669 221 1595 370 1525 517 1454 666 1385 812 1313 960 1244 1108 1162 1215 1005 1276 850 1340 695 1401 541 1465 385 1529 232 1593 76 1652 -78 1687 -232 1617 -386 1547 -542 1482 -695 1413 -851 1349 -1005 1280 -1161 1215 -1245 1109 -1315 959 -1385 812 -1455 663 -1525 517 -1596 369 -1666 221 -1738 73 -1714 -75 -1649 -228 -1584 -378 -1522 -529 -1458 -682 -1395 -831 -1333 -983 -1269 -1135 -1161 -1215 -1005 -1276 -849 -1340 -695 -1403 -541 -1465 -386 -1527 -231 -1593 -76 -1656 76 -1632 234 -1576 386 -1518 541 -1461 696 -1405 851 -1350 1006 -1294 1161 -1237 1269 -1108 1332 -961 1396 -810 1459 -665 1522 -517 1585 -368 1648 -221 1713 -74zm136 -43162l0 0 -3015 67 -2959 203 -2907 339 -2852 477 -2796 611 -2742 748 -2686 884 -2634 1022 -2578 1156 -2523 1294 -2469 1431 -2415 1566 -2358 1703 -2304 1839 -2250 1977 -2192 2110 -2087 2209 -1950 2263 -1815 2318 -1682 2374 -1548 2430 -1413 2487 -1279 2542 -1144 2600 -1011 2653 -875 2711 -741 2768 -606 2821 -473 2878 -338 2934 -203 2990 -68 3044 66 3045 201 2987 334 2930 470 2875 603 2817 738 2761 873 2706 1008 2648 1141 2593 1276 2534 1411 2478 1546 2424 1680 2366 1814 2311 1950 2253 2086 2196 2175 2110 2235 1978 2292 1841 2348 1704 2406 1568 2462 1433 2519 1295 2576 1161 2632 1023 2690 888 2745 751 2805 616 2860 478 2915 342 2974 206 3029 69 2989 -65 2932 -200 2878 -335 2826 -470 2773 -605 2718 -738 2666 -873 2611 -1008 2557 -1141 2504 -1277 2449 -1411 2396 -1547 2343 -1681 2286 -1815 2235 -1950 2181 -2087 2095 -2161 1964 -2218 1827 -2271 1693 -2327 1558 -2380 1422 -2434 1287 -2488 1153 -2542 1016 -2597 883 -2652 746 -2705 610 -2759 476 -2814 339 -2867 204 -2924 70 -3013 -66 -3129 -197 -3104 -331 -3040 -463 -2976 -596 -2914 -728 -2848 -861 -2787 -994 -2722 -1127 -2660 -1260 -2597 -1391 -2531 -1526 -2469 -1657 -2405 -1791 -2341 -1925 -2279 -2056 -2215 -2138 -2111 -2200 -1975 -2262 -1842 -2325 -1704 -2387 -1568 -2448 -1433 -2511 -1297 -2573 -1160 -2637 -1024 -2697 -887 -2761 -752 -2820 -614 -2884 -480 -2946 -342 -3008 -206 -3068 -69zm-10068 133411l0 0 -285 101 -204 224 -74 295 0 58954 49 242 133 198 198 133 241 49 32518 0 242 -49 197 -133 133 -198 49 -242 0 -8621 181 -112 37470 18853 -13 53 -116797 0 -242 48 -197 134 -133 197 -49 242 0 42371 49 242 133 198 197 133 242 50 153278 0 242 -50 197 -133 133 -198 50 -242 0 -66870 -104 -344 -276 -229 -107258 -45250 -300 -46zm-47339 120649l0 0 -238 49 -202 134 -161 278 -1013 3457 -819 3655 -489 3380 -167 3166 242 5034 290 2373 417 2369 537 2313 656 2259 774 2201 894 2147 1015 2092 1134 2035 1253 1981 1373 1925 1494 1868 1611 1813 1734 1757 1854 1704 4021 3165 4183 2683 4541 2327 4743 1876 4996 1460 5249 1041 5503 625 5713 208 103517 0 242 -49 197 -134 133 -197 50 -242 0 -44859 -50 -242 -133 -199 -197 -132 -242 -49 -97523 -1 -3415 -143 -2932 -421 -2505 -711 -2004 -967 -865 -605 -732 -664 -619 -734 -505 -804 -403 -901 -271 -927 -222 -2067 90 -1459 274 -1511 457 -1582 402 -1152 -108 -352 -224 -199 -289 -72 -43261 0z"/>
  <path id="__x0020__0" fill="#E1E1E1" fill-rule="nonzero" d="M180759 930630l-192 -872 -954 -1729 -967 -594 -15257 -3983 -1546 -4296 -1896 -3985 7547 -12599 617 -2135 -326 -1534 -6005 -7139 -3122 -2932 -2873 -2375 -771 -488 -1892 -521 -1062 253 -13592 7945 -4142 -1949 -4190 -1470 -3635 -14448 -541 -1293 -1623 -1312 -5378 -704 -4172 -148 -7906 554 -1787 590 -1044 918 -243 -1743 3404 -3045 2979 -3252 14496 2280 910 24 1867 -502 781 -729 2538 -4267 1796 -3878 1552 -4009 1153 -3745 216 -1163 -574 -1930 -12825 -10062 249 -4568 -202 -4440 11892 -8649 1397 -1714 403 -1670 -1422 -4991 -1422 -3917 -3478 -7125 -517 -748 -1537 -1212 -1608 -267 -15114 2111 -3022 -3395 -3228 -2997 2280 -14525 14 -1020 -570 -1912 -790 -756 -8045 -4185 -3988 -1538 -3555 -1124 -891 -163 -1943 214 -897 633 -9628 12470 -4556 -259 -4401 196 -8653 -11900 -608 -650 -1691 -983 -1637 -38 -4434 1289 -3918 1426 -3644 1643 -3487 1839 -661 451 -1226 1484 -339 1667 2117 15161 -3443 3036 -3003 3251 -14505 -2274 -906 -25 -1891 509 -796 766 -2484 4257 -1782 3888 -1534 4013 -1134 3735 -206 1156 570 1923 12821 10057 -269 4526 177 4449 -11861 8648 -1395 1677 -321 1637 1336 5053 1428 3912 1643 3660 1833 3480 508 729 1533 1226 1623 267 15056 -2098 3075 3463 3247 2979 -2276 14510 -13 1001 550 1910 805 771 4132 2386 3879 1796 4003 1541 3582 1130 906 163 1940 -235 875 -617 9578 -12494 4555 259 4444 -182 1120 1540 -636 -75 -1017 401 -7033 5954 -2916 3122 -2376 2877 -772 1389 -162 1686 8122 14243 -1941 4123 -1474 4161 -14449 3645 -1306 550 -1303 1638 -695 5354 -147 4143 550 7924 580 1777 1259 1457 15511 3911 1523 4334 1892 4004 -7548 12605 -627 2174 359 1527 3098 3998 2936 3108 3127 2917 2874 2351 1670 848 1922 124 13700 -8175 4095 1951 4195 1502 3567 14233 325 838 1198 1542 1015 440 5086 672 4027 147 4129 -157 3917 -398 1786 -589 1432 -1264 3907 -15458 4368 -1561 3975 -1892 12590 7542 823 359 1940 240 1019 -407 3899 -2998 3113 -2926 2930 -3132 2389 -2897 787 -1437 134 -1667 -8160 -14174 1953 -4123 1494 -4201 14462 -3643 1322 -556 1289 -1647 794 -9501 -502 -7883zm-83734 -95096l0 0 -823 4650 -1766 4644 -1265 2246 -1442 2064 -1633 1896 -3735 3234 -4258 2442 -4636 1589 -4889 671 -2495 -19 -2509 -273 -2505 -532 -2503 -799 -2319 -1007 -2193 -1220 -3951 -3036 -3290 -3750 -1359 -2108 -1160 -2254 -928 -2348 -685 -2418 -651 -4941 325 -4982 1303 -4860 1005 -2322 1222 -2194 1422 -2049 3400 -3635 4070 -2922 2246 -1153 4765 -1620 2462 -439 2667 -207 4789 321 4769 1259 3778 1802 3152 2131 2792 2566 2390 2965 1892 3232 1416 3519 891 3764 316 3918 -77 2175zm-713 85648l0 0 3735 -3291 4358 -2513 2356 -934 4871 -1130 2667 -202 4793 322 4775 1259 3774 1796 3151 2135 2791 2562 2386 2969 1911 3257 1397 3496 897 3774 325 3701 -86 2376 -825 4654 -1776 4650 -1250 2236 -1451 2069 -1628 1897 -1796 1710 -4018 2844 -4458 2025 -4779 1140 -2472 215 -2489 -19 -2509 -273 -2505 -531 -2501 -795 -4515 -2232 -2054 -1426 -3635 -3400 -2916 -4072 -1154 -2240 -930 -2361 -684 -2414 -652 -4946 39 -2485 286 -2491 1303 -4861 1006 -2323 1221 -2192 3041 -3956z"/>
  <path id="__x0020__1" fill="#192F97" fill-rule="nonzero" d="M70812 804408l2828 64 2818 342 2783 619 2729 895 4014 1907 3582 2424 3174 2921 2713 3368 2155 3675 1609 4002 1011 4273 346 4611 -104 2489 -362 2662 -606 2618 -848 2556 -1203 2717 -1443 2533 -1664 2341 -1867 2141 -2050 1929 -2215 1714 -2360 1487 -2487 1253 -2595 1009 -2684 759 -2755 500 -2807 231 -2837 -44 -2852 -330 -2848 -623 -2824 -924 -2625 -1161 -2483 -1404 -2320 -1633 -2146 -1847 -1956 -2048 -1750 -2234 -1532 -2406 -1295 -2563 -1036 -2679 -763 -2748 -487 -2797 -211 -2824 64 -2832 341 -2817 618 -2785 895 -2728 1161 -2627 1404 -2483 1632 -2323 1847 -2146 2046 -1957 2233 -1752 2405 -1530 2563 -1297 2677 -1037 2747 -763 2795 -487 2825 -211zm-779 -11382l0 0 -730 31 -3322 324 -713 101 -3218 645 -702 173 -3106 950 -668 237 -2977 1241 -628 295 -2828 1514 -591 350 -2659 1772 -560 410 -2470 2014 -513 455 -2269 2241 -467 501 -2050 2454 -421 550 -1811 2648 -367 590 -1552 2820 -315 635 -1280 2990 -251 661 -989 3133 -188 703 -681 3267 -118 721 -355 3382 -44 730 -10 3478 0 5 28 648 324 3324 101 713 645 3219 173 702 949 3108 238 669 1240 2979 296 631 1512 2825 350 592 1773 2659 408 560 2013 2473 456 513 2238 2268 503 467 2452 2051 551 422 2644 1810 592 369 2822 1554 632 314 2989 1280 660 250 3132 991 703 188 3265 681 722 118 3380 355 730 44 3399 13 731 -31 3322 -324 712 -101 3219 -645 701 -173 3108 -950 667 -238 2978 -1240 628 -295 2826 -1515 592 -349 2658 -1773 561 -409 2470 -2014 513 -455 2268 -2241 468 -503 2049 -2452 422 -550 1810 -2648 367 -590 1553 -2821 314 -634 1282 -2990 253 -670 989 -3135 185 -694 681 -3265 117 -721 355 -3368 40 -610 47 -2426 2 -107 0 -74 -12 -368 -209 -3233 -75 -694 -511 -3140 -137 -672 -797 -3038 -201 -654 -1069 -2917 -257 -624 -1326 -2782 -316 -598 -1568 -2632 -359 -549 -1798 -2469 -410 -519 -2013 -2290 -458 -481 -2201 -2087 -491 -429 -2412 -1901 -538 -389 -2574 -1669 -578 -342 -2729 -1428 -610 -289 -2871 -1174 -645 -233 -3002 -910 -667 -171 -3114 -626 -688 -108 -3215 -329 -706 -42 -3398 -13zm44163 116611l0 0 2831 64 2816 341 2783 618 2728 897 4015 1907 3583 2423 3174 2920 2712 3370 2170 3704 1594 3973 1011 4273 355 4407 -114 2692 -361 2663 -606 2618 -847 2556 -1205 2718 -1443 2532 -1664 2341 -1866 2139 -2051 1931 -2214 1713 -2360 1487 -2487 1253 -2595 1010 -2684 759 -2756 499 -2805 232 -2838 -44 -2853 -331 -2846 -621 -2825 -925 -2626 -1162 -2481 -1404 -2321 -1632 -2145 -1847 -1957 -2048 -1750 -2233 -1531 -2407 -1295 -2563 -1037 -2680 -762 -2748 -488 -2795 -211 -2825 64 -2831 342 -2818 618 -2784 895 -2730 1161 -2628 1403 -2482 1632 -2322 1847 -2146 2046 -1957 2234 -1751 2405 -1532 2561 -1296 2679 -1037 2747 -763 2795 -486 2823 -212zm-122 -11408l0 0 -698 18 -3214 259 -700 87 -3158 566 -668 150 -3073 863 -663 217 -2972 1151 -630 274 -2851 1430 -597 333 -2705 1700 -573 393 -2534 1955 -537 450 -2349 2205 -493 505 -2141 2444 -447 560 -1912 2678 -390 601 -1657 2899 -334 646 -1383 3107 -267 681 -1062 3230 -197 705 -718 3257 -125 713 -382 3268 -51 712 -55 3258 -5 134 3 76 18 502 260 3196 86 700 567 3160 149 667 863 3075 217 663 1149 2973 276 628 1430 2853 332 597 1697 2708 395 573 1953 2535 451 537 2204 2351 505 493 2442 2141 563 450 2673 1910 605 392 2894 1657 646 332 3107 1383 680 268 3229 1062 704 198 3256 719 713 123 3265 384 712 51 3251 57 698 -18 3214 -260 700 -86 3160 -567 666 -150 3073 -863 663 -217 2972 -1151 630 -275 2848 -1428 599 -334 2707 -1698 572 -395 2534 -1954 537 -451 2349 -2204 494 -505 2139 -2445 449 -560 1911 -2677 389 -601 1659 -2898 333 -648 1385 -3114 257 -647 976 -2928 186 -649 699 -2994 124 -654 418 -3045 64 -673 137 -3143 6 -307 0 -74 -4 -212 -105 -2512 -41 -551 -296 -2510 -83 -546 -481 -2459 -122 -529 -661 -2402 -160 -512 -834 -2333 -196 -496 -980 -2212 -361 -720 -2503 -4276 -77 -119 -528 -766 -83 -113 -2960 -3683 -536 -606 -1774 -1770 -391 -363 -1879 -1611 -420 -336 -1992 -1464 -439 -301 -2120 -1327 -478 -276 -2253 -1183 -498 -239 -2328 -1004 -599 -229 -3218 -1059 -704 -198 -3257 -717 -711 -125 -3267 -382 -712 -53 -3251 -56z"/>
  <path id="__x0020__2" fill="#521973" fill-rule="nonzero" d="M69904 800135l3411 7 3229 327 3129 624 3012 908 2885 1176 2741 1428 2583 1669 2424 1904 2210 2088 2023 2295 1808 2475 1578 2639 1334 2790 1076 2923 805 3044 516 3150 216 3273 -44 2358 -348 3362 -678 3280 -987 3147 -1280 2999 -1554 2836 -1811 2656 -2049 2462 -2273 2252 -2476 2024 -2662 1782 -2831 1523 -2983 1249 -3115 959 -3232 653 -3332 330 -3410 -6 -3394 -352 -3278 -678 -3146 -987 -2998 -1280 -2834 -1556 -2657 -1811 -2461 -2052 -2250 -2271 -2023 -2477 -1781 -2665 -1524 -2831 -1248 -2985 -958 -3116 -653 -3233 -331 -3332 7 -3413 352 -3394 677 -3279 988 -3147 1279 -3000 1554 -2836 1811 -2658 2051 -2461 2272 -2251 2476 -2024 2662 -1782 2831 -1523 2982 -1250 3117 -958 3231 -653 3331 -331zm-14520 -27409l0 0 -3709 1076 -3670 1326 -3448 1546 -3484 1838 -243 228 -84 407 2295 16416 -72 185 -2277 1810 -2285 2082 -2132 2226 -1902 2272 -186 70 -16336 -2562 -373 57 -271 260 -1740 3215 -1696 3677 -1452 3777 -1133 3735 64 273 182 223 13193 9976 78 182 -317 2850 -138 3072 67 3091 260 2975 -82 179 -13353 9732 -189 224 -67 279 25 174 1076 3709 1326 3674 1547 3452 1835 3483 266 262 369 64 16363 -2278 183 72 1839 2285 2098 2287 2232 2127 2266 1882 69 186 -2560 16343 78 413 237 231 3191 1737 3671 1704 3789 1470 3581 1131 376 -1 308 -220 9905 -13222 182 -79 2871 310 3087 130 3096 -71 2976 -259 179 82 9746 13401 303 224 378 5 3719 -1120 3578 -1300 3488 -1551 3518 -1808 246 -231 85 -409 -2295 -16414 72 -183 2247 -1824 2264 -2090 2123 -2233 1896 -2273 185 -69 16331 2562 374 -53 275 -261 1750 -3195 1712 -3665 1470 -3776 1155 -3743 -64 -275 -182 -221 -13191 -9977 -79 -180 307 -2872 123 -3085 -86 -3090 -281 -2969 81 -181 13399 -9751 189 -222 67 -281 -1100 -3882 -1326 -3673 -1533 -3422 -1848 -3513 -267 -262 -368 -64 -16412 2297 -182 -72 -1821 -2252 -2078 -2268 -2216 -2129 -2255 -1905 -69 -185 2563 -16343 -79 -413 -239 -230 -3216 -1745 -3678 -1704 -3782 -1468 -3554 -1125 -377 0 -307 217 -9972 13197 -182 78 -2867 -308 -3070 -127 -3075 78 -2950 275 -180 -82 -9749 -13404 -301 -221 -374 -10zm58466 132609l0 0 3260 52 3275 378 3269 716 3243 1060 2352 1009 2262 1182 2131 1329 1999 1466 1886 1614 1756 1743 3097 3851 2488 4243 1006 2258 838 2336 666 2407 487 2466 300 2517 108 2555 -130 3094 -416 3058 -696 3006 -973 2935 -1382 3121 -1657 2908 -1911 2688 -2144 2458 -2355 2216 -2542 1968 -2710 1707 -2856 1439 -2980 1159 -3083 871 -3162 575 -3223 265 -3259 -51 -3276 -379 -3270 -714 -3241 -1062 -3120 -1382 -2908 -1658 -2687 -1913 -2454 -2143 -2218 -2355 -1967 -2544 -1706 -2712 -1438 -2856 -1159 -2982 -872 -3083 -574 -3165 -265 -3224 51 -3261 378 -3276 716 -3271 1061 -3244 1381 -3119 1657 -2910 1912 -2688 2143 -2456 2355 -2217 2542 -1967 2711 -1709 2856 -1438 2981 -1160 3081 -871 3164 -574 3222 -266zm1073 -29540l0 0 -3747 141 -3945 397 -186 49 -281 242 -4094 16259 -136 143 -2768 845 -2881 1079 -2801 1257 -2611 1379 -197 -6 -14188 -8499 -366 -87 -349 142 -2820 2326 -2960 2775 -2777 2958 -2374 2876 -107 185 -36 211 89 320 8494 14192 6 198 -1360 2543 -1269 2801 -1078 2882 -850 2840 -143 136 -16255 4096 -242 285 -46 187 -392 3833 -146 3881 141 3799 397 3913 46 188 242 285 16254 4096 143 137 826 2790 1074 2899 1264 2812 1394 2615 -6 199 -8494 14192 -89 321 36 210 107 185 2325 2819 2774 2951 2955 2762 2877 2355 166 97 369 26 14367 -8571 197 -4 2523 1363 2797 1277 2888 1095 2854 873 138 143 4018 16032 195 320 343 148 3841 392 3902 146 3779 -142 3915 -396 186 -48 279 -244 4094 -16206 136 -143 2807 -850 2905 -1091 2806 -1272 2594 -1397 199 4 14188 8499 364 86 349 -139 2805 -2306 2957 -2767 2781 -2965 2389 -2897 107 -188 36 -208 -91 -321 -8544 -14143 -4 -197 1360 -2547 1278 -2813 1095 -2900 873 -2856 143 -137 16250 -4095 243 -283 48 -188 355 -3870 134 -3867 -129 -3753 -360 -3941 -148 -347 -321 -199 -16072 -4020 -143 -136 -849 -2768 -1090 -2884 -1273 -2804 -1396 -2610 6 -198 8496 -14194 89 -319 -35 -207 -106 -188 -2304 -2820 -2758 -2961 -2949 -2779 -2871 -2375 -351 -142 -365 87 -14187 8499 -199 4 -2545 -1359 -2813 -1271 -2897 -1078 -2855 -851 -138 -143 -4094 -16257 -279 -243 -185 -49 -3842 -392 -3901 -146z"/>
 </g>
</svg>
